<svg width="1920" height="160" viewBox="0 0 1920 160" fill="none" xmlns="http://www.w3.org/2000/svg">
<g clip-path="url(#clip0_22_222)">
<rect width="1920" height="160" fill="#121212"/>
<circle cx="-26.6667" cy="121.333" r="53.3333" fill="#575757"/>
<circle cx="68" cy="118.667" r="66.6667" fill="#575757"/>
<circle cx="134.667" cy="114.667" r="33.3333" fill="#575757"/>
<circle cx="237.333" cy="118.667" r="93.3333" fill="#575757"/>
<circle cx="725.333" cy="137.333" r="93.3333" fill="#575757"/>
<circle cx="840" cy="161.333" r="93.3333" fill="#575757"/>
<circle cx="966.667" cy="161.333" r="93.3333" fill="#575757"/>
<circle cx="352" cy="121.333" r="53.3333" fill="#575757"/>
<circle cx="542.667" cy="110.667" r="42.6667" fill="#575757"/>
<circle cx="618.667" cy="132" r="53.3333" fill="#575757"/>
<circle cx="444" cy="158.667" r="80" fill="#575757"/>
<circle cx="1050.67" cy="121.333" r="40" fill="#575757"/>
<circle cx="1130.67" cy="132" r="80" fill="#575757"/>
<circle cx="1224" cy="121.333" r="53.3333" fill="#575757"/>
<circle cx="1318.67" cy="118.667" r="66.6667" fill="#575757"/>
<circle cx="1385.33" cy="114.667" r="33.3333" fill="#575757"/>
<circle cx="1488" cy="118.667" r="93.3333" fill="#575757"/>
<circle cx="1602.67" cy="121.333" r="53.3333" fill="#575757"/>
<circle cx="1793.33" cy="110.667" r="42.6667" fill="#575757"/>
<circle cx="1869.33" cy="132" r="53.3333" fill="#575757"/>
<circle cx="1961.33" cy="137.333" r="80" fill="#575757"/>
<circle cx="1694.67" cy="158.667" r="80" fill="#575757"/>
<circle cx="40" cy="161.333" r="40" fill="#FFEA00"/>
<circle cx="120" cy="172" r="80" fill="#FFEA00"/>
<circle cx="213.333" cy="161.333" r="53.3333" fill="#FFEA00"/>
<circle cx="308" cy="158.667" r="66.6667" fill="#FFEA00"/>
<circle cx="374.667" cy="154.667" r="33.3333" fill="#FFEA00"/>
<circle cx="477.333" cy="196" r="93.3333" fill="#FFEA00"/>
<circle cx="592" cy="161.333" r="53.3333" fill="#FFEA00"/>
<circle cx="782.667" cy="150.667" r="42.6667" fill="#FFEA00"/>
<circle cx="858.667" cy="172" r="53.3333" fill="#FFEA00"/>
<circle cx="684" cy="198.667" r="80" fill="#FFEA00"/>
<circle cx="846.667" cy="172" r="40" fill="#FFEA00"/>
<circle cx="926.667" cy="196" r="80" fill="#FFEA00"/>
<circle cx="1020" cy="172" r="53.3333" fill="#FFEA00"/>
<circle cx="1114.67" cy="169.333" r="66.6667" fill="#FFEA00"/>
<circle cx="1181.33" cy="165.333" r="33.3333" fill="#FFEA00"/>
<circle cx="1284" cy="188" r="93.3333" fill="#FFEA00"/>
<circle cx="1398.67" cy="172" r="53.3333" fill="#FFEA00"/>
<circle cx="1589.33" cy="161.333" r="42.6667" fill="#FFEA00"/>
<circle cx="1665.33" cy="182.667" r="53.3333" fill="#FFEA00"/>
<circle cx="1490.67" cy="209.333" r="80" fill="#FFEA00"/>
<circle cx="1160" cy="190.667" r="40" fill="#FFEA00"/>
<circle cx="1240" cy="201.333" r="80" fill="#FFEA00"/>
<circle cx="1333.33" cy="190.667" r="53.3333" fill="#FFEA00"/>
<circle cx="1428" cy="188" r="66.6667" fill="#FFEA00"/>
<circle cx="1494.67" cy="184" r="33.3333" fill="#FFEA00"/>
<circle cx="1597.33" cy="188" r="93.3333" fill="#FFEA00"/>
<circle cx="1712" cy="190.667" r="53.3333" fill="#FFEA00"/>
<circle cx="1904" cy="166.667" r="42.6667" fill="#FFEA00"/>
<circle cx="1804" cy="201.333" r="80" fill="#FFEA00"/>
</g>
<defs>
<clipPath id="clip0_22_222">
<rect width="1920" height="160" fill="white"/>
</clipPath>
</defs>
</svg>
