<svg width="99" height="98" viewBox="0 0 99 98" fill="none" xmlns="http://www.w3.org/2000/svg">
<path d="M19.7362 43.5556C19.7362 23.2591 36.1897 6.80557 56.4862 6.80557H98.6807V49.0001C98.6807 69.2966 82.2271 85.7501 61.9307 85.7501H19.7362V43.5556Z" fill="#4CAF4F"/>
<path d="M56.2684 44.6174C56.0506 42.4124 54.3628 40.6429 52.1851 40.3435C49.4084 39.9624 46.7134 39.1457 44.1817 37.9479C41.1328 36.5051 38.3834 34.5179 35.9606 32.0407C34.1911 30.2168 31.1423 30.2168 29.3728 32.0407C26.95 34.5179 24.2006 36.5051 21.1517 37.9479C18.62 39.1457 15.925 39.9624 13.1483 40.3435C10.9706 40.6429 9.28278 42.4124 9.065 44.6174C8.49333 50.1435 8.24833 64.1629 17.8578 74.6707C21.4784 78.618 25.97 81.5307 31.1967 83.3274C31.6867 83.4907 32.1767 83.5724 32.6667 83.5724C33.1567 83.5724 33.6467 83.4907 34.1367 83.3274C39.3634 81.5307 43.855 78.618 47.4756 74.6707C57.1123 64.1629 56.8401 50.1707 56.2684 44.6174ZM44.4539 71.8941C41.2962 75.3513 37.3761 77.883 32.5306 79.4619C27.9572 77.883 24.0372 75.3513 20.8795 71.8941C12.3861 62.6113 12.6311 50.0074 13.1211 45.0257C13.1483 44.6718 13.3933 44.4268 13.6928 44.3724C16.8778 43.9368 19.9811 43.0112 22.8939 41.6229C26.3784 39.9624 29.5361 37.7029 32.2584 34.8718C32.3673 34.7629 32.5034 34.7085 32.6395 34.7085C32.7756 34.7085 32.9117 34.7629 33.0206 34.8718C35.77 37.7029 38.9278 39.9624 42.4123 41.6229C45.325 43.0112 48.4284 43.9368 51.6134 44.3724C51.9401 44.4268 52.1578 44.6718 52.1851 45.0257C52.7023 50.0074 52.9473 62.6385 44.4539 71.8941Z" fill="#F1E811"/>
<path d="M39.2001 50.4974L32.449 59.5079L28.6651 55.724C27.8757 54.9346 26.569 54.9346 25.7795 55.724C24.9901 56.5135 24.9901 57.8201 25.7795 58.6096L31.224 64.054C31.6051 64.4352 32.1223 64.6529 32.6668 64.6529C32.7212 64.6529 32.7757 64.6529 32.8029 64.6529C33.4018 64.5985 33.9462 64.3263 34.3001 63.8363L42.4668 52.9474C43.1473 52.049 42.9568 50.7696 42.0585 50.089C41.1601 49.4085 39.8807 49.599 39.2001 50.4974Z" fill="#F1E811"/>
</svg>
