<svg width="98" height="98" viewBox="0 0 98 98" fill="none" xmlns="http://www.w3.org/2000/svg">
<g clip-path="url(#clip0_22_123)">
<path d="M19.0556 43.5556C19.0556 23.2591 35.5092 6.80557 55.8057 6.80557H98.0001V49.0001C98.0001 69.2966 81.5466 85.7501 61.2501 85.7501H19.0556V43.5556Z" fill="#4CAF4F"/>
<path d="M66.0139 84.3892L61.3044 79.6797" stroke="#F1E811" stroke-width="2.03833" stroke-linecap="round" stroke-linejoin="round"/>
<path d="M55.1251 51.7224H27.9028" stroke="#F1E811" stroke-width="2.03833" stroke-linecap="round" stroke-linejoin="round"/>
<path d="M27.9028 62.6113H36.0695" stroke="#F1E811" stroke-width="2.03833" stroke-linecap="round" stroke-linejoin="round"/>
<path d="M56.4862 81.6669C60.2449 81.6669 63.2918 78.6199 63.2918 74.8613C63.2918 71.1027 60.2449 68.0557 56.4862 68.0557C52.7276 68.0557 49.6807 71.1027 49.6807 74.8613C49.6807 78.6199 52.7276 81.6669 56.4862 81.6669Z" stroke="#F1E811" stroke-width="2.03833" stroke-linecap="round" stroke-linejoin="round"/>
<path d="M41.514 84.389C18.7921 84.389 17.0139 82.6109 17.0139 59.889C17.0139 37.1671 18.7921 35.389 41.514 35.389C64.2358 35.389 66.014 37.1671 66.014 59.889" stroke="#F1E811" stroke-width="2.03833" stroke-linecap="round" stroke-linejoin="round"/>
<path d="M66.0141 86.4307C65.4917 86.4307 64.9693 86.2313 64.5706 85.8325L59.8612 81.1218C59.0636 80.3243 59.0636 79.0323 59.8612 78.2347C60.6587 77.4372 61.9507 77.4372 62.7482 78.2347L67.4576 82.9455C68.2551 83.743 68.2551 85.035 67.4576 85.8325C67.0589 86.2313 66.5364 86.4307 66.0141 86.4307Z" fill="#F1E811"/>
<path d="M55.1251 53.764H27.9028C26.7757 53.764 25.8612 52.8495 25.8612 51.7223C25.8612 50.5952 26.7757 49.6807 27.9028 49.6807H55.1251C56.2523 49.6807 57.1668 50.5952 57.1668 51.7223C57.1668 52.8495 56.2523 53.764 55.1251 53.764ZM36.0695 64.6529H27.9028C26.7757 64.6529 25.8612 63.7384 25.8612 62.6113C25.8612 61.4841 26.7757 60.5696 27.9028 60.5696H36.0695C37.1967 60.5696 38.1112 61.4841 38.1112 62.6113C38.1112 63.7384 37.1967 64.6529 36.0695 64.6529Z" fill="#F1E811"/>
<path d="M56.4862 83.7085C51.608 83.7085 47.639 79.7395 47.639 74.8613C47.639 69.9831 51.608 66.0141 56.4862 66.0141C61.3644 66.0141 65.3335 69.9831 65.3335 74.8613C65.3335 79.7395 61.3644 83.7085 56.4862 83.7085ZM56.4862 70.0974C53.8597 70.0974 51.7223 72.2348 51.7223 74.8613C51.7223 77.4878 53.8597 79.6252 56.4862 79.6252C59.1128 79.6252 61.2501 77.4878 61.2501 74.8613C61.2501 72.2348 59.1128 70.0974 56.4862 70.0974Z" fill="#F1E811"/>
<path d="M41.514 86.4307C17.7011 86.4307 14.9723 83.7032 14.9723 59.889C14.9723 36.0748 17.7011 33.3473 41.514 33.3473C65.3268 33.3473 68.0557 36.0748 68.0557 59.889C68.0557 61.0162 67.1412 61.9307 66.014 61.9307C64.8868 61.9307 63.9723 61.0162 63.9723 59.889C63.9723 38.2707 63.1323 37.4306 41.514 37.4306C19.8956 37.4306 19.0556 38.2707 19.0556 59.889C19.0556 81.5073 19.8956 82.3474 41.514 82.3474C42.6411 82.3474 43.5556 83.2619 43.5556 84.389C43.5556 85.5162 42.6411 86.4307 41.514 86.4307Z" fill="#F1E811"/>
</g>
<defs>
<clipPath id="clip0_22_123">
<rect width="97.8397" height="97.8397" fill="white" transform="scale(1.00164)"/>
</clipPath>
</defs>
</svg>
