<svg width="224" height="28" viewBox="0 0 224 28" fill="none" xmlns="http://www.w3.org/2000/svg">
<path fill-rule="evenodd" clip-rule="evenodd" d="M48.8042 4.36457C41.5195 4.36457 36.9367 9.4361 36.9367 16.5261C36.9367 23.3612 41.9986 27.9595 48.8042 27.9595C54.8261 27.9595 59.535 24.5228 60.1893 18.5479H52.9943C52.643 20.9135 51.3335 22.3723 48.7602 22.3723C45.6181 22.3723 44.3543 19.409 44.3543 16.5261C44.3543 13.4349 45.0087 9.95087 49.153 9.95087C51.0271 9.95087 52.7293 11.2886 52.7759 13.1775H59.9692C59.4495 7.28811 54.4333 4.36457 48.8042 4.36457ZM128.288 4.36372C125.077 4.36372 122.82 5.81745 121.47 8.15679H121.378V5.00973H114.184V27.316H121.598V15.7336C121.598 12.4773 123.023 10.3767 125.611 10.3776C129.459 10.3776 129.321 13.4747 129.321 16.5244V27.316H136.738V13.0014C136.738 9.7773 135.836 4.36372 128.288 4.36372ZM149.936 4.36372C147.36 4.36372 144.744 4.79552 142.736 5.91481C140.73 7.07136 139.333 8.9645 139.203 11.8864H146.14C146.49 9.99574 147.798 9.09574 149.848 9.09574C151.376 9.09574 153.424 9.73412 153.424 11.4105C153.424 12.7906 152.726 13.2165 151.462 13.4764C146.315 14.5051 138.287 13.9488 138.287 21.209C138.287 25.8106 141.69 27.9578 146.006 27.9578C148.714 27.9578 151.552 27.1848 153.469 25.2095C153.558 25.9402 153.642 26.6251 153.904 27.316H161.367C160.494 25.5541 160.495 23.4891 160.495 21.5968V11.8398C160.495 5.52619 155.298 4.36372 149.935 4.36372H149.936ZM153.339 16.8707C153.513 21.4715 152.332 23.445 148.801 23.445C147.142 23.445 145.704 22.7127 145.704 20.9127C145.704 19.1474 147.102 18.459 148.758 18.0738C150.375 17.6445 152.292 17.5184 153.338 16.8715L153.339 16.8707ZM162.916 0.0381V27.3177H170.331V0.0372533L162.916 0.0381ZM187.983 0.0381V7.41849H187.892C186.366 5.39835 184.228 4.36626 181.436 4.36626C175.022 4.36626 171.883 9.86705 171.883 15.6684C171.883 21.9431 174.894 27.9595 182.004 27.9595C184.621 27.9595 186.803 26.8427 188.243 24.7362H188.328V27.3168H195.398V0.0381H187.983ZM183.835 9.95256C187.064 9.95256 188.243 12.9201 188.243 16.1417C188.243 18.9763 187.457 22.3723 183.835 22.3723C180.432 22.3723 179.301 18.9772 179.301 15.9266C179.301 13.092 180.432 9.95256 183.835 9.95256ZM196.945 0.0381V7.4168H200.416L203.881 0.0381H196.945ZM61.7401 0.0381V27.3177H73.6465C82.0605 27.3177 87.218 22.5027 87.218 13.5661C87.218 5.11895 82.1367 0.0381 73.6465 0.0381H61.7401ZM69.6427 6.3627H72.9744C77.2838 6.3627 79.2155 9.20072 79.2155 13.545C79.2155 18.3236 77.658 20.9956 72.9744 20.9956H69.6427V6.3627ZM5.72046 0L0 27.3168H8.16762L10.2728 16.4685C10.498 15.2699 10.6897 14.0651 10.8476 12.8558H10.9297C11.0583 13.611 11.391 15.1062 11.7253 16.3822L14.6931 27.3168H22.8108L25.7734 16.3822C26.1112 15.1062 26.4421 13.611 26.5691 12.8558H26.6563C26.7282 13.4358 26.9559 15.0715 27.2293 16.4685L29.3345 27.3168H37.5004L31.7808 0H23.1248L19.6568 13.7202C19.3665 14.7836 19.0084 16.5058 18.7917 17.4041H18.7104C18.4904 16.5058 18.1348 14.7836 17.8453 13.7202L14.3757 0L5.72046 0ZM100.68 4.36457C93.3694 4.36457 88.7645 9.48097 88.7645 16.1823C88.7645 22.8854 93.3677 28.0001 100.678 28.0001C107.989 28.0001 112.589 22.8862 112.589 16.1823C112.589 9.48097 107.99 4.36457 100.68 4.36457ZM100.678 9.95087C103.883 9.95087 105.17 12.6119 105.17 16.1823C105.17 19.7561 103.884 22.4138 100.679 22.4138C97.4705 22.4138 96.1839 19.7561 96.1839 16.1823C96.1839 12.6111 97.4697 9.95087 100.678 9.95087ZM212.703 4.36203C208.313 4.36203 202.307 5.82253 202.307 11.1963C202.307 17.2136 208.27 17.3397 212.877 18.5014C214.166 18.8045 216.451 19.1457 216.45 20.8661C216.45 22.6306 214.425 23.2317 213.004 23.2317C211.97 23.2317 211.078 22.9734 210.391 22.457C209.659 21.8965 209.186 21.0778 209.186 19.9635H202.111C202.327 26.1984 207.752 27.9578 213.049 27.9578C218.087 27.9578 223.962 25.98 223.962 20.0076C223.962 18.1593 222.803 14.892 218.281 13.9869C214.921 13.2605 209.821 12.8744 209.821 10.7679C209.821 9.21851 211.76 9.08981 212.962 9.08981C213.868 9.08981 214.588 9.26253 215.191 9.64861C215.793 10.0364 216.139 10.6367 216.139 11.5824H222.995C222.738 5.78104 217.612 4.36203 212.703 4.36203Z" fill="#FFEA00"/>
</svg>
