<svg width="187" height="58" viewBox="0 0 187 58" fill="none" xmlns="http://www.w3.org/2000/svg">
<g opacity="0.4">
<path fill-rule="evenodd" clip-rule="evenodd" d="M115.549 26.6838C114.917 26.8873 114.053 27.0599 112.98 27.1929C112.468 27.2593 111.899 27.2927 111.233 27.2927C110.114 27.2927 108.903 27.2042 107.729 27.1132L107.689 27.1117C106.601 27.0301 105.573 26.9536 104.586 26.9536C103.881 26.9536 103.235 26.995 102.615 27.0736C100.771 27.301 99.3174 27.8757 99.3174 27.8757L99.3331 27.7271C99.6903 24.056 102.797 20.9219 106.557 20.4262C106.903 20.386 107.26 20.3631 107.618 20.3631C111.16 20.3631 114.595 23.0291 115.616 26.5703L115.641 26.6621L115.549 26.6838ZM119.877 28.2423L119.876 28.1923C119.86 27.9562 119.815 27.5744 119.765 27.1639C119.668 26.4191 119.504 25.6859 119.277 24.9788C117.568 19.6245 112.991 16.1692 107.618 16.1692C107.082 16.1692 106.527 16.2029 105.981 16.2769C99.0902 17.1573 94.4101 23.3576 95.3213 30.3923C96.15 36.7608 101.311 41.1238 107.592 41.1238C108.122 41.1238 108.674 41.0872 109.231 41.0208C112.579 40.5987 115.52 39.2067 117.723 36.4998C117.848 36.3456 117.909 36.1487 117.886 35.9722C117.866 35.8155 117.773 35.6665 117.607 35.5468C117.237 35.2828 115.918 34.6472 115.2 34.3078L114.724 34.075C114.506 33.9636 114.35 33.9136 114.208 33.9136C114.034 33.9136 113.869 34.0021 113.708 34.1964C112.287 35.8358 110.49 36.697 108.653 36.9363C108.289 36.9806 107.935 37.0041 107.592 37.0041C104.245 37.0041 100.866 34.7788 99.8857 31.7245L99.8612 31.6444L99.9331 31.6099C100.107 31.5243 101.673 30.8002 103.995 30.8002C104.283 30.8002 104.576 30.8118 104.862 30.8372C105.528 30.8894 106.197 30.9754 106.902 31.0638C108.204 31.2346 109.554 31.4116 111.129 31.4116C112.101 31.4116 113.055 31.342 114.029 31.2074C117.86 30.4742 119.38 29.4074 119.392 29.3976C119.933 29.0502 119.913 28.7623 119.877 28.2423ZM179.901 17.571C179.901 17.2516 179.637 16.9945 179.318 16.9945H176.147C175.831 16.9945 175.57 17.2516 175.57 17.571V39.9573C175.57 40.2735 175.831 40.5349 176.147 40.5349H179.318C179.637 40.5349 179.901 40.2735 179.901 39.9573V17.571ZM177.735 9.01011C176.159 9.01011 174.873 10.288 174.873 11.8555C174.873 13.4195 176.159 14.6944 177.735 14.6944C179.316 14.6944 180.598 13.4195 180.598 11.8555C180.598 10.288 179.316 9.01011 177.735 9.01011ZM135.756 20.4208C140.25 20.4208 143.772 24.093 143.772 28.7837C143.772 33.5024 140.43 37.0574 135.998 37.0574C133.76 37.0574 131.685 36.2604 130.167 34.8169C128.601 33.3327 127.742 31.2368 127.742 28.9241C127.742 24.2351 131.337 20.4208 135.756 20.4208ZM135.615 41.1314C135.816 41.1397 136.023 41.1477 136.225 41.1477C139.484 41.1477 142.511 39.8989 144.761 37.6481C147.043 35.3535 148.296 32.2072 148.296 28.7837C148.296 21.7106 142.811 16.1692 135.807 16.1692C130.108 16.1692 125.297 19.895 123.826 25.4375C123.576 26.3785 123.317 28.7783 123.317 31.1715V48.7365C123.317 49.0567 123.576 49.3174 123.898 49.3174H127.044C127.369 49.3174 127.632 49.0534 127.632 48.7318L127.63 37.667L127.795 37.8262C129.34 39.3165 132.205 40.9726 135.615 41.1314ZM79.2419 20.4208C83.7321 20.4208 87.2551 24.093 87.2551 28.7837C87.2551 33.5024 83.9147 37.0574 79.4786 37.0574C77.2349 37.0574 75.1699 36.2604 73.6531 34.8169C72.0844 33.3327 71.2213 31.2368 71.2213 28.9241C71.2213 24.2351 74.8193 20.4208 79.2419 20.4208ZM79.1024 41.1314C79.3029 41.1397 79.5092 41.1477 79.7076 41.1477C82.9695 41.1477 85.9984 39.8989 88.2445 37.6481C90.5265 35.3535 91.7833 32.2072 91.7833 28.7837C91.7833 21.7106 86.2938 16.1692 79.289 16.1692C73.5921 16.1692 68.7761 19.895 67.3086 25.4375C67.0536 26.3785 66.7987 28.7783 66.7987 31.1715V48.7365C66.7987 49.0567 67.0602 49.3174 67.3747 49.3174H70.5296C70.8532 49.3174 71.1165 49.0534 71.1165 48.7318L71.1114 37.667L71.2706 37.8262C72.8163 39.3165 75.6816 40.9726 79.1024 41.1314ZM151.326 37.2101C154.065 39.6984 157.056 41.1198 160.94 41.1198H161.064C167.768 41.0766 170.763 37.4386 170.763 33.8541C170.763 28.8961 166.052 27.541 164.608 27.2404C164.145 27.1509 163.663 27.061 163.169 26.9634C162.003 26.7404 160.791 26.5101 159.69 26.2081C158.918 25.9974 156.402 25.1656 156.402 23.2978C156.402 21.2417 158.701 20.1332 160.86 20.1332C162.673 20.1332 164.186 20.4364 166.121 21.9365C166.272 22.0547 166.484 22.19 166.743 22.19C166.934 22.19 167.118 22.1243 167.315 21.9844C167.851 21.5924 168.831 20.7714 169.479 20.1285C169.631 19.9751 169.702 19.8073 169.693 19.6317C169.678 19.3591 169.474 19.1361 169.37 19.0501C166.782 17.0122 164.292 16.1782 160.78 16.1692H160.755C155.732 16.1692 151.94 19.3747 151.94 23.6245C151.94 26.9921 154.729 29.3838 159.783 30.3694L162.948 30.9717C165.029 31.351 166.198 32.4479 166.158 33.9836C166.121 35.4805 164.271 37.0306 161.233 37.0306C158.753 37.0306 156.569 36.0693 154.739 34.4202L154.712 34.3941C154.583 34.2777 154.428 34.1359 154.22 34.1359C154.075 34.1359 153.921 34.203 153.755 34.3317C153.564 34.4854 151.451 36.1448 151.225 36.3794C151.121 36.4896 151.073 36.606 151.075 36.7282C151.08 36.9222 151.209 37.1035 151.326 37.2101ZM184.525 37.7305C184.744 37.7305 184.867 37.8998 184.867 38.0851C184.867 38.261 184.744 38.4292 184.512 38.4292H184.023V37.7305H184.525ZM184.8 38.893C185.201 38.7929 185.372 38.4376 185.372 38.0851C185.372 37.6558 185.1 37.2297 184.525 37.2297H183.508V39.83H184.023V38.9314H184.194L184.844 39.83H185.47L184.8 38.893ZM184.4 40.6636C185.596 40.6636 186.538 39.7074 186.538 38.5184C186.538 37.3319 185.596 36.3667 184.4 36.3667C183.205 36.3667 182.261 37.3319 182.261 38.5184C182.261 39.7074 183.205 40.6636 184.4 40.6636ZM184.4 35.908C185.849 35.908 187 37.0796 187 38.5184C187 39.9573 185.849 41.1198 184.4 41.1198C182.954 41.1198 181.809 39.9573 181.809 38.5184C181.809 37.0796 182.954 35.908 184.4 35.908Z" fill="#FFEA00"/>
<path fill-rule="evenodd" clip-rule="evenodd" d="M49.2145 48.862C37.9583 60.0399 19.7014 60.0384 8.44595 48.862C-2.81532 37.6826 -2.81532 19.5582 8.44595 8.38247C19.7039 -2.79434 37.9584 -2.79434 49.2123 8.38356C60.4736 19.5578 60.4736 37.6823 49.2145 48.8616" fill="#FFEA00"/>
<path fill-rule="evenodd" clip-rule="evenodd" d="M51.2721 14.1786C51.8123 15.9155 52.1082 17.759 52.1082 19.6704C52.1082 25.8369 49.0544 31.2595 44.4098 34.6571C36.333 40.563 24.5611 40.571 8.30708 45.6559C13.2129 51.4773 20.5848 55.1825 28.8289 55.1825C43.6044 55.1825 55.5815 43.2913 55.5815 28.6225C55.5815 23.2976 53.9939 18.3399 51.2721 14.1786Z" fill="#FFEA00"/>
<path fill-rule="evenodd" clip-rule="evenodd" d="M44.8729 7.37129C40.4024 4.03526 34.8487 2.06192 28.8296 2.06192C14.0548 2.06192 2.07805 13.9556 2.07805 28.6226C2.07805 34.5266 4.01818 39.9796 7.29944 44.3886C25.292 39.1873 39.4989 25.1748 44.8729 7.37129Z" fill="#FFEA00"/>
</g>
</svg>
