<svg width="98" height="98" viewBox="0 0 98 98" fill="none" xmlns="http://www.w3.org/2000/svg">
<g clip-path="url(#clip0_22_110)">
<path d="M19.0556 43.5555C19.0556 23.2591 35.5091 6.80556 55.8055 6.80556H97.9999V49C97.9999 69.2964 81.5464 85.7499 61.2499 85.7499H19.0556V43.5555Z" fill="#4CAF4F"/>
<path d="M32.2039 63.632L33.3472 70.5328C33.412 70.9335 33.3151 71.3435 33.0777 71.6727C32.8404 72.002 32.482 72.2235 32.0814 72.2886H31.8364C31.4689 72.2991 31.1099 72.1769 30.825 71.9445C30.5401 71.7121 30.3483 71.3849 30.2847 71.0228L29.3252 65.1224L28.825 62.0599L28.2431 58.1093C28.1493 57.5106 27.8447 56.9651 27.3843 56.5712C26.9238 56.1773 26.3378 55.9608 25.7318 55.9608C25.1259 55.9608 24.5398 56.1773 24.0794 56.5712C23.6189 56.9651 23.3144 57.5106 23.2206 58.1093L22.5775 62.0599L22.0773 65.1224L21.0973 71.0228C21.0651 71.2239 20.9936 71.4167 20.8869 71.5901C20.7803 71.7636 20.6405 71.9144 20.4755 72.0338C20.3106 72.1532 20.1237 72.239 19.9256 72.2863C19.7275 72.3335 19.5221 72.3412 19.321 72.3091C19.1199 72.2769 18.9271 72.2054 18.7537 72.0987C18.5802 71.9921 18.4294 71.8523 18.31 71.6873C18.1906 71.5224 18.1048 71.3355 18.0576 71.1374C18.0103 70.9394 18.0026 70.7339 18.0348 70.5328L19.2189 63.2849L20.1377 57.6193C20.3497 56.3045 21.0229 55.1082 22.0368 54.2447C23.0506 53.3813 24.3388 52.907 25.6706 52.907C27.0023 52.907 28.2905 53.3813 29.3044 54.2447C30.3183 55.1082 30.9915 56.3045 31.2035 57.6193L32.0916 63.0501L32.2039 63.632Z" fill="#F1E811"/>
<path d="M32.204 63.632C32.1831 64.0211 32.0137 64.3873 31.7306 64.6551C31.4476 64.9229 31.0726 65.0719 30.683 65.0714H20.7401C20.334 65.0714 19.9445 64.9101 19.6573 64.6229C19.3702 64.3357 19.2088 63.9462 19.2088 63.5401C19.1988 63.4383 19.1988 63.3357 19.2088 63.2339C19.2776 62.8871 19.4651 62.5752 19.7389 62.3516C20.0128 62.1281 20.3559 62.0069 20.7095 62.0089H30.6524C30.9669 62.0104 31.2732 62.1094 31.5292 62.2922C31.7851 62.475 31.9781 62.7327 32.0815 63.0297L32.204 63.632ZM38.9619 72.3091C38.5558 72.3091 38.1663 72.1478 37.8792 71.8606C37.592 71.5734 37.4307 71.1839 37.4307 70.7778V59.5487C37.4307 59.1426 37.592 58.7531 37.8792 58.4659C38.1663 58.1788 38.5558 58.0174 38.9619 58.0174C39.368 58.0174 39.7575 58.1788 40.0447 58.4659C40.3318 58.7531 40.4932 59.1426 40.4932 59.5487V70.7778C40.4932 71.1839 40.3318 71.5734 40.0447 71.8606C39.7575 72.1478 39.368 72.3091 38.9619 72.3091ZM38.9619 56.8026C38.5559 56.8023 38.1667 56.6407 37.8798 56.3535C37.5945 56.0653 37.4332 55.6769 37.4307 55.2714C37.4309 55.0454 37.4812 54.8222 37.578 54.6179C37.6747 54.4136 37.8154 54.2332 37.9901 54.0898C38.1648 53.9463 38.3691 53.8433 38.5883 53.7882C38.8075 53.733 39.0362 53.7271 39.258 53.7708L39.5438 53.8524L39.8092 53.9954C39.892 54.0544 39.9704 54.1192 40.044 54.1893C40.2579 54.4035 40.4035 54.6762 40.4625 54.973C40.5214 55.2699 40.4911 55.5776 40.3753 55.8572C40.2596 56.1368 40.0635 56.3759 39.8119 56.5441C39.5604 56.7124 39.2646 56.8024 38.9619 56.8026Z" fill="#F1E811"/>
<path d="M40.1664 85.2532H18.3615C15.2488 85.2505 12.2643 84.0128 10.0633 81.8118C7.86232 79.6108 6.62461 76.6264 6.62191 73.5137V51.7087C6.62461 48.596 7.86232 45.6116 10.0633 43.4106C12.2643 41.2095 15.2488 39.9718 18.3615 39.9691H40.1664C43.2791 39.9718 46.2636 41.2095 48.4646 43.4106C50.6656 45.6116 51.9033 48.596 51.906 51.7087V73.5137C51.9033 76.6264 50.6656 79.6108 48.4646 81.8118C46.2636 84.0128 43.2791 85.2505 40.1664 85.2532ZM18.3615 43.0316C16.061 43.0343 13.8555 43.9494 12.2288 45.5761C10.6022 47.2027 9.6871 49.4082 9.6844 51.7087V73.5137C9.6871 75.8141 10.6022 78.0196 12.2288 79.6463C13.8555 81.273 16.061 82.188 18.3615 82.1907H40.1664C42.4669 82.188 44.6724 81.273 46.2991 79.6463C47.9258 78.0196 48.8408 75.8141 48.8435 73.5137V51.7087C48.8408 49.4082 47.9258 47.2027 46.2991 45.5761C44.6724 43.9494 42.4669 43.0343 40.1664 43.0316H18.3615Z" fill="#F1E811"/>
</g>
<defs>
<clipPath id="clip0_22_110">
<rect width="97.8397" height="97.8397" fill="white" transform="scale(1.00164)"/>
</clipPath>
</defs>
</svg>
