<svg width="227" height="24" viewBox="0 0 227 24" fill="none" xmlns="http://www.w3.org/2000/svg">
<path d="M151.697 12.884C151.697 19.8682 147.769 23.3603 140.566 23.3603C133.364 23.3603 129.653 19.65 129.653 12.884V0.661625H137.51V12.4475C137.51 15.7213 138.383 17.2491 140.566 17.2491C142.749 17.2491 143.622 15.9396 143.622 12.2292V0.661625H151.479L151.697 12.884ZM44.5287 0.661625V6.3363H37.981V22.9238H29.9055V6.3363H23.1396V0.661625H44.5287ZM58.0606 5.68153L56.0963 13.3205H60.025L58.0606 5.68153ZM63.2988 22.9238L61.9893 18.7769H54.3503L52.8225 22.9238H44.747L52.8225 0.661625H63.0806L71.1561 22.9238H63.2988ZM177.456 21.1778L175.055 15.2848C173.527 16.5944 171.781 17.2491 169.817 17.2491C166.761 17.2491 164.579 14.6301 164.579 11.7927V11.5745C164.36 8.73712 166.325 6.11804 169.38 5.68153H169.817C171.781 5.68153 173.745 6.55455 175.055 7.8641L177.456 2.18942C174.618 0.661627 171.563 0.00685647 168.507 0.00685647C162.178 -0.2114 156.721 4.8085 156.503 11.1379C156.285 17.4674 161.305 22.9238 167.634 23.1421H168.726C171.781 23.5786 174.837 22.7056 177.456 21.1778ZM203.865 0.661625L196.662 11.5745L204.738 22.9238H195.571L190.551 14.8483V22.9238H182.694V0.661625H190.551V8.73713L195.135 0.661625H203.865ZM9.6033 23.3603C14.6232 23.3603 19.8614 21.6143 19.8614 15.9396C19.8614 10.9197 15.4962 9.3919 12.0041 8.73713C9.38504 8.30061 8.29375 7.8641 8.29375 6.99107C8.29375 5.68153 10.0398 5.46327 10.9128 5.46327C13.0954 5.46327 15.278 6.3363 17.2423 7.42758L19.4248 2.40768C16.5875 1.09814 13.5319 0.443367 10.2581 0.22511C5.0199 0.22511 0.873027 2.84419 0.873027 7.8641C0.873027 12.011 4.14688 13.757 7.42073 14.4118C9.82155 15.0666 11.3493 15.2848 11.3493 16.3761C11.3493 17.4674 10.2581 17.9039 8.94852 17.9039C6.5477 17.9039 4.14688 17.0309 2.40082 15.5031L0 20.3047C3.27385 22.269 6.32944 23.1421 9.6033 23.3603ZM216.742 23.3625C221.762 23.3625 227 21.6165 227 15.9418C227 10.9219 222.635 9.39408 219.143 8.73931C216.524 8.30279 215.432 7.86628 215.432 6.99326C215.432 5.68371 217.179 5.46546 218.052 5.46546C220.234 5.46546 222.417 6.33849 224.381 7.42977L226.564 2.40986C223.726 1.10032 220.671 0.445548 217.397 0.227291C212.159 0.227291 208.012 2.84637 208.012 7.86628C208.012 12.0132 211.067 13.7592 214.778 14.414C217.179 15.0687 218.706 15.287 218.706 16.3783C218.706 17.4696 217.397 17.9061 216.305 17.9061C213.905 17.9061 211.504 17.0331 209.758 15.5053L207.139 20.3069C210.194 22.2712 213.468 23.1443 216.742 23.3625ZM92.3291 14.6322C94.9482 13.541 96.476 11.1401 96.476 8.30279C96.476 3.06463 92.7657 0.663806 87.7458 0.663806H75.7416V22.926H83.5989V16.3783H85.5632L89.4918 22.926H97.7856L92.3291 14.6322ZM88.837 8.30279C88.837 9.61233 87.964 10.4854 86.8727 10.7036H83.8171V5.90197H86.6545C87.7458 5.68371 88.837 6.55674 89.0553 7.86628C88.837 8.08453 88.837 8.08454 88.837 8.30279ZM119.393 11.5766C122.012 11.3584 123.976 9.17582 123.758 6.55674C123.758 2.84638 120.921 0.663806 115.901 0.663806H103.242V22.926H115.464C121.357 22.926 124.195 20.7434 124.195 16.5965C124.413 13.9775 122.23 11.7949 119.393 11.5766ZM110.881 5.46546H113.718C115.246 5.46546 116.119 6.12023 116.119 7.42977C116.119 8.73931 115.246 9.39408 113.718 9.39408H110.881V5.46546ZM116.119 15.9418C116.119 17.2513 115.246 17.9061 113.5 17.9061H110.663V13.7592H113.502C115.248 13.9775 116.121 14.6322 116.121 15.9418H116.119Z" fill="#FFEA00"/>
</svg>
