<svg width="222" height="64" viewBox="0 0 222 64" fill="none" xmlns="http://www.w3.org/2000/svg">
<g opacity="0.4">
<path d="M118.176 16.9674C117.868 17.3401 117.694 17.7563 117.694 18.48V38.3783H117.583C117.583 38.3783 106.672 18.9614 106.144 18.0638C105.771 17.4271 105.354 16.9891 104.805 16.6599C104.256 16.354 103.685 16.1567 102.588 16.1567H98.9873C98.1518 16.1567 97.6259 16.4409 97.2525 16.8804C96.9444 17.2516 96.7686 17.6693 96.7686 18.3915V46.5967C96.7686 47.3204 96.9444 47.7366 97.2525 48.1093C97.6259 48.5472 98.1518 48.8314 98.9873 48.8314H101.029C101.863 48.8314 102.39 48.5472 102.763 48.1093C103.07 47.7366 103.246 47.3204 103.246 46.5967V26.2154H103.356C103.356 26.2154 114.685 46.2457 115.147 46.9911C115.783 48.0425 116.858 48.8314 118.395 48.8314H121.887C122.721 48.8314 123.248 48.5472 123.622 48.1093C123.928 47.7366 124.104 47.3204 124.104 46.5967V21.1527H169.97C170.432 21.1527 170.782 21.0222 171.047 20.8032C171.331 20.5392 171.464 20.1883 171.464 19.6634V17.7346C171.464 17.2081 171.331 16.8571 171.047 16.5947C170.782 16.3757 170.432 16.2437 169.97 16.2437H119.911C119.077 16.2437 118.55 16.5295 118.176 16.9674ZM138.2 24.5056C130.581 24.5056 126.299 30.4457 126.299 36.7135C126.299 43.3975 130.889 49.2709 138.244 49.2709C141.911 49.2709 145.512 47.8903 147.575 45.4568C148.475 44.4054 149.201 42.9363 149.201 42.0387C149.201 41.7312 149.134 41.4687 148.959 41.2715C148.784 41.0525 148.519 40.9205 148.059 40.9205H144.524C143.82 40.9205 143.338 41.183 142.986 41.7095C141.955 43.2221 140.461 44.011 138.266 44.011C134.972 44.011 132.843 41.5122 132.689 38.7728H147.971C148.651 38.7728 149.134 38.619 149.463 38.2913C149.837 37.9404 150.013 37.4357 150.013 36.493C150.013 33.6231 149.112 30.6429 147.225 28.3632C145.292 26.0616 142.35 24.5056 138.2 24.5056ZM161.758 24.5056C155.743 24.5056 151.791 27.3553 151.791 31.9133C151.791 33.5346 152.384 34.8499 153.35 35.8796C154.47 37.0862 156.073 37.9186 158.4 38.5103L163.428 39.7807C164.811 40.1316 166.04 40.5478 166.04 41.7529C166.04 43.6165 164.064 44.2517 161.957 44.2517C160.924 44.2517 159.849 44.0545 158.97 43.6165C158.355 43.309 157.829 42.8711 157.456 42.2794C157.126 41.7747 157.017 41.402 156.512 41.1178C156.204 40.9423 155.83 40.9205 155.326 40.9205H152.603C152.01 40.9205 151.726 41.096 151.528 41.3367C151.331 41.5775 151.264 41.9284 151.264 42.2794C151.264 43.1553 151.572 44.2517 152.297 45.2378C153.965 47.4726 157.456 49.2709 161.912 49.2709C166.304 49.2709 172.386 47.4508 172.386 41.5775C172.386 40.0664 171.946 38.7728 171.134 37.7214C170.102 36.3843 168.632 35.4634 166.129 34.8282L161.145 33.5563C159.08 33.0314 158.114 32.6587 158.114 31.3868C158.114 30.1599 159.213 29.1738 161.758 29.1738C163.252 29.1738 164.613 29.503 165.492 30.424C166.216 31.1911 166.085 31.5856 166.656 31.8915C167.006 32.067 167.401 32.067 168.017 32.067H170.498C170.893 32.067 171.179 32.0018 171.397 31.7595C171.574 31.5623 171.683 31.2564 171.683 30.7516C171.683 29.6117 170.936 28.1442 169.62 27.026C167.863 25.5134 165.097 24.5056 161.758 24.5056ZM175.437 25.3395H174.208C173.748 25.3395 173.396 25.47 173.133 25.6889C172.847 25.9529 172.715 26.3039 172.715 26.8288V28.3414C172.715 28.8679 172.847 29.2173 173.133 29.4813C173.396 29.7003 173.748 29.8323 174.208 29.8323H175.437V40.7668C175.437 43.5715 176.206 45.3248 177.633 46.7287C178.951 48.0208 180.664 48.8314 183.649 48.8314H185.515C185.977 48.8314 186.327 48.701 186.592 48.482C186.876 48.218 187.052 47.867 187.052 47.3421V45.4351C187.052 44.9086 186.876 44.5592 186.592 44.2952C186.327 44.0762 185.977 43.9442 185.515 43.9442H185.252C184.066 43.9442 183.254 43.6383 182.705 43.1118C182.047 42.4984 181.717 41.5557 181.717 40.3289V29.8323H185.714C186.175 29.8323 186.526 29.7003 186.789 29.4813C187.074 29.2173 187.206 28.8679 187.206 28.3414V26.8288C187.206 26.3039 187.074 25.9529 186.789 25.6889C186.526 25.47 186.175 25.3395 185.714 25.3395H181.739V18.1942C181.739 17.6243 181.563 17.2081 181.3 16.8804C180.97 16.486 180.51 16.2437 179.83 16.2437H177.348C176.667 16.2437 176.206 16.486 175.876 16.8804C175.613 17.2081 175.437 17.6243 175.437 18.1942V25.3395ZM188.876 46.8809C188.876 47.4508 189.05 47.867 189.314 48.1962C189.643 48.5907 190.105 48.8314 190.785 48.8314H193.397C194.079 48.8314 194.539 48.5907 194.869 48.1962C195.132 47.867 195.308 47.4508 195.308 46.8809V18.1958C195.308 17.6259 195.132 17.2097 194.869 16.8804C194.539 16.486 194.079 16.2437 193.397 16.2437H190.785C190.105 16.2437 189.643 16.486 189.314 16.8804C189.05 17.2097 188.876 17.6259 188.876 18.1958V46.8809ZM132.733 34.1045C133.018 31.4085 135.082 29.3928 138.222 29.3928C141.297 29.3928 143.425 31.4085 143.711 34.1045H132.733ZM219.086 21.1527C219.547 21.1527 219.899 21.0222 220.162 20.8032C220.448 20.5392 220.58 20.1883 220.58 19.6634V17.6243C220.58 16.8354 220.426 16.4409 220.162 16.1567C219.92 15.8927 219.525 15.7405 219.086 15.7405C218.735 15.7405 218.385 15.784 217.792 15.8492L200.269 17.5808C199.765 17.6243 199.524 17.778 199.348 17.9753C199.151 18.1942 199.062 18.48 199.062 18.8745V20.0128C199.062 20.4523 199.151 20.6495 199.305 20.825C199.501 21.044 199.787 21.1527 200.182 21.1527H219.086ZM209.404 24.5056C201.785 24.5056 197.503 30.4457 197.503 36.7135C197.503 43.3975 202.093 49.2709 209.448 49.2709C213.115 49.2709 216.715 47.8903 218.778 45.4568C219.679 44.4054 220.404 42.9363 220.404 42.0387C220.404 41.7312 220.337 41.4687 220.162 41.2715C219.987 41.0525 219.723 40.9205 219.262 40.9205H215.727C215.024 40.9205 214.542 41.183 214.19 41.7095C213.158 43.2221 211.665 44.011 209.469 44.011C206.176 44.011 204.046 41.5122 203.893 38.7728H219.219C219.899 38.7728 220.382 38.619 220.711 38.2913C221.084 37.9404 221.26 37.4357 221.26 36.493C221.26 33.6231 220.359 30.6429 218.472 28.3632C216.539 26.0616 213.554 24.5056 209.404 24.5056ZM203.937 34.1045C204.223 31.4085 206.286 29.3928 209.426 29.3928C212.5 29.3928 214.629 31.4085 214.915 34.1045H203.937Z" fill="#FFEA00"/>
<path d="M72.0057 21.4151C66.322 12.9529 61.3276 10.1017 59.9227 8.7599C58.3792 7.27991 57.203 5.6027 56.4546 4.79515C54.7898 2.97972 52.6349 0.738764 49.0906 0.738764C45.6692 0.738764 43.4085 2.96418 42.6741 4.88677C42.4609 5.43498 42.2929 6.10586 42.1404 6.34968C41.8043 6.89944 40.292 9.47582 39.665 10.4977H42.492L41.1166 13.0896C42.7207 12.7386 43.8659 12.4793 45.3938 12.4793C46.7536 12.4793 47.7307 12.8008 48.1586 13.6533C48.9536 15.2405 48.9536 20.0423 50.2979 23.6576C51.5504 27.0555 54.6062 30.3805 58.0431 32.9274C58.0883 32.9569 58.1349 32.9724 58.1956 32.9724C58.3637 32.9724 58.471 32.8513 58.471 32.7286C58.471 32.637 58.4399 32.5764 58.3637 32.5003C55.4915 29.6335 53.1545 26.4623 51.9021 22.9867C50.6636 19.6012 50.8627 14.8429 49.7783 12.7231C49.0594 11.3208 47.5331 10.9558 46.1266 10.9558C44.997 10.9558 43.9421 11.1841 43.4536 11.2897L44.6905 9.20095H42.5978C43.0413 8.42446 43.4987 7.70698 43.729 7.27992C43.9266 6.91341 44.0044 6.45684 44.2486 5.83254C45.0421 3.83386 46.7987 2.56818 49.0906 2.56818C51.9627 2.56818 53.6431 4.41312 55.3079 6.25805C56.0718 7.11219 57.3243 8.89656 58.776 10.2228C59.7686 11.1375 61.6637 12.1594 64.581 15.1644C66.2614 16.9022 68.2171 19.1586 70.2787 22.1776C77.6582 32.9569 82.5002 42.4564 85.2043 49.8673L85.1592 49.8983C77.414 44.6524 70.7065 39.6968 65.2998 33.5827C61.4645 29.2375 58.1349 24.2058 55.2317 17.7858C55.0325 17.3587 54.866 16.9627 54.6824 16.5512C54.6062 16.3835 54.5299 16.3369 54.407 16.3369C54.2546 16.3369 54.1472 16.444 54.1472 16.5962C54.1472 16.764 54.2234 17.1305 54.3915 17.8619C55.9349 24.5102 60.2121 30.4721 64.7801 35.4277C69.3327 40.3537 74.4796 44.5918 78.7116 47.6729L82.0116 57.0948C82.0879 57.3247 82.1797 57.5685 82.1797 57.7968C82.1797 57.9645 82.133 58.1012 82.0272 58.1928C81.9354 58.2844 81.814 58.331 81.5386 58.331H80.546C80.1181 58.331 79.9485 58.2689 79.796 58.1477C79.6436 58.0251 79.5378 57.8418 79.46 57.629C79.1706 56.7439 77.428 51.7883 77.0935 50.782C77.0312 50.6003 76.9239 50.5381 76.8025 50.5381C76.65 50.5381 76.5427 50.6608 76.5427 50.7975C76.5427 50.9202 76.5878 51.0568 76.6656 51.4839C77.1075 53.7404 77.6271 56.2717 77.8403 57.233C77.9336 57.6741 78.0394 58.0872 78.0394 58.3916C78.0394 58.6649 77.9788 58.8186 77.75 59.0469L76.7263 60.0843C76.482 60.3281 76.3435 60.3887 76.1459 60.3887C75.9016 60.3887 75.7025 60.221 75.6107 59.7939C74.45 54.3802 72.6934 47.6729 72.2344 45.8109C72.1271 45.4009 72.0508 45.1711 71.8065 45.1711C71.5934 45.1711 71.5171 45.3232 71.5171 45.5065C71.5171 45.6432 71.5467 45.8109 71.5623 45.9336C71.8377 47.8546 72.9532 54.8539 74.159 61.2428C74.3738 62.3408 74.7861 62.9496 75.7336 62.9496C76.1615 62.9496 76.5722 62.7818 76.955 62.4169C77.582 61.791 77.764 61.6233 78.514 60.8919C79.0477 60.3732 79.4148 60.1604 80.3313 60.1604H82.592C83.1272 60.1604 83.4166 60.0237 83.6764 59.7784C83.9207 59.5501 84.0732 59.2302 84.0732 58.772C84.0732 58.2999 83.9518 57.9195 83.7838 57.4458C83.2034 55.8913 81.3395 50.6298 80.7887 49.1513L80.8354 49.1203C82.7444 50.5692 85.5248 52.4141 86.7477 52.4141C87.1289 52.4141 87.3592 52.2464 87.3592 51.6516C87.3592 48.847 82.6838 37.3037 72.0057 21.4151Z" fill="#FFEA00"/>
<path d="M19.5615 3.69723C19.882 2.99528 20.5853 2.50765 21.4255 2.50765C22.5706 2.50765 23.487 3.39285 23.487 4.5669C23.487 5.25176 23.1665 5.8481 22.6624 6.21305C22.7697 6.61062 22.846 6.96004 22.846 7.29548C22.846 8.57669 22.082 9.47586 20.6771 9.94952C20.4935 10.726 20.1574 11.428 19.6066 11.9467C18.6902 12.8303 17.7582 12.8303 17.7582 13.1968C17.7582 13.3956 17.8967 13.5167 18.2779 13.5167C19.9738 13.5167 21.6386 12.5725 21.8378 11.0009C23.4575 10.4527 24.4346 8.82051 24.4346 7.52532C24.4346 7.18833 24.4034 6.89947 24.2665 6.62615C24.7099 6.19752 25.2296 5.46607 25.2296 4.38365C25.2296 3.43788 24.8157 2.47814 24.0829 1.77619C23.4419 1.15034 22.5395 0.738803 21.4861 0.738803C19.9583 0.738803 18.9656 1.56343 18.4008 2.37098C16.7345 2.37098 14.5811 4.21592 14.5811 6.85443H14.3524C14.1984 5.93973 13.2524 5.32786 12.4573 5.28282C11.8163 3.36178 10.3646 1.71563 7.98102 1.71563C7.70719 1.71563 7.37111 1.73116 7.08016 1.77619C6.37846 1.13481 5.59896 0.738803 4.5145 0.738803C2.43584 0.738803 0.739915 2.40204 0.739915 4.50478C0.739915 5.81704 1.33582 6.71622 2.46695 7.50979C2.46695 7.50979 2.45139 7.67751 2.45139 7.75361C2.45139 9.43083 4.28423 12.0538 7.00392 12.0538C7.00392 12.4793 7.53915 13.0601 8.13506 13.1657V13.3801H7.90478C4.16287 13.3801 2.57431 15.18 2.57431 16.3835C1.45874 16.8416 0.739915 18.0763 0.739915 19.2193C0.739915 21.4913 2.40627 23.1079 4.6063 23.1079C5.33912 23.1079 6.08751 22.8191 6.60717 22.4215C6.98837 22.5582 7.47692 22.6343 7.98102 22.6343C9.03592 22.6343 10.2122 22.2693 11.0368 21.0642C11.1597 21.0797 11.2655 21.0797 11.3884 21.0797C12.7327 21.0797 13.8934 20.1945 14.5049 19.036C14.6573 18.7471 14.718 18.5189 14.718 18.3496C14.718 18.1834 14.6418 18.0452 14.4737 18.0452C14.2606 18.0452 14.2295 18.244 13.8483 18.595C12.9925 19.373 11.6778 19.6619 10.3335 19.6619C9.67694 20.6231 8.86788 21.1263 7.9359 21.1263C7.2482 21.1263 6.71453 20.9431 6.16374 20.5766C5.72032 21.0642 5.17109 21.263 4.63586 21.263C3.43005 21.263 2.57431 20.4244 2.57431 19.2037C2.57431 18.3496 3.12354 17.5886 3.88748 17.2982C4.0244 15.7887 5.64408 14.7669 7.66051 14.7669C7.92034 14.7669 8.18018 14.7824 8.45557 14.8135C8.76052 14.3258 9.49335 13.8071 10.5327 13.6689C10.7474 13.6394 10.9139 13.6239 11.0368 13.5633C11.1597 13.5012 11.2204 13.3801 11.2204 13.2418C11.2204 13.1207 11.1737 13.0135 11.0523 12.9375C10.945 12.8769 10.7614 12.8474 10.5482 12.8008C9.58514 12.6175 8.44001 12.0227 7.85966 10.5738C5.55228 10.5738 3.85636 8.72888 3.85636 6.65565V6.51899C3.09242 6.21306 2.57431 5.4816 2.57431 4.61193C2.57431 3.46894 3.47517 2.55424 4.6203 2.55424C5.30801 2.55424 5.90391 2.88968 6.28666 3.39284C6.60717 3.30122 6.97281 3.27016 7.32444 3.27016C9.03592 3.27016 10.8688 4.35259 11.2204 6.45687C13.4204 6.65565 13.9401 8.51612 14.077 9.29416C14.1532 9.69017 14.2139 10.0256 14.4737 10.0256C14.7491 10.0256 14.8098 9.71968 14.9016 9.30814C15.0697 8.53165 15.3606 7.9058 15.941 7.41817C15.941 5.41948 17.4377 3.69723 19.5615 3.69723Z" fill="#FFEA00"/>
<path d="M24.0067 15.6511C23.2879 16.6729 22.7698 17.1761 21.1346 19.0971C18.9812 21.644 17.8501 23.7033 15.9706 28.2768C16.2771 28.2457 16.7205 28.2162 17.2091 28.2162C17.4533 28.2162 17.6509 28.2162 17.973 28.2302L18.2017 27.7426C19.2566 25.4861 20.6756 22.436 22.6624 20.0879L23.3502 19.2804C25.3961 16.8872 26.6642 15.4678 27.4593 12.205C27.7346 11.0465 27.9634 10.0107 28.7429 9.26212C29.4446 8.59123 30.3314 8.30238 31.2323 8.30238C31.9962 8.30238 32.5626 8.48563 33.3872 8.83505C34.1356 9.15497 34.4094 9.21708 35.2045 9.21708C35.4799 9.21708 35.6775 9.20155 35.8611 9.18602L34.7922 10.6194L36.2438 11.6413C34.425 12.174 33.4634 13.9288 33.1414 14.7364C33.0807 14.9041 33.0511 15.0112 33.0511 15.1184C33.0511 15.2411 33.1118 15.3622 33.2954 15.3622C33.493 15.3622 33.6455 15.21 33.9053 14.9041C34.7922 13.8372 35.4954 13.1042 38.7628 12.0839L36.457 10.3445L38.198 7.79921H36.5643C35.525 7.79921 34.8373 7.78368 33.9364 7.37215C32.7135 6.80841 32.088 6.5646 31.0036 6.5646C29.6748 6.5646 28.4675 7.0367 27.4748 7.95141C26.3281 9.00277 25.9765 10.4067 25.5657 11.9472C25.2437 13.1353 24.8625 14.4475 24.0067 15.6511Z" fill="#FFEA00"/>
<path d="M27.5203 26.0352C26.649 27.2093 25.4572 28.7483 24.5408 30.3805C24.8317 30.5187 25.7948 31.0374 26.1309 31.2191C27.1842 29.6335 28.6514 27.683 29.613 26.203C30.4843 24.8612 30.8359 24.2819 30.8966 22.482C30.9121 22.1776 30.9121 21.8872 30.9417 21.5984C31.0179 20.6681 31.2638 19.7224 32.1491 18.8543C32.8056 18.1974 33.7532 17.8635 34.7007 17.8635C35.6171 17.8635 36.1508 18.1213 36.9459 18.1213C37.5107 18.1213 37.923 17.9846 38.2902 17.8479L38.5811 17.7408L37.8778 19.4196L39.5271 20.0889C38.4738 20.7442 36.1664 23.566 36.1664 26.9049C36.1664 28.11 36.35 29.222 36.6098 30.2128C36.6409 30.3199 36.7016 30.4271 36.8696 30.4271C37.0221 30.4271 37.1295 30.3354 37.145 30.1677L37.1606 29.8167C37.2057 28.7949 37.2819 27.1798 37.6943 25.7309C38.382 23.2911 40.2303 21.0036 42.0787 19.9056L39.4508 18.7626L40.582 16.003L39.345 16.2623C38.5967 16.4145 38.0459 16.5512 37.3893 16.5512C36.9614 16.5512 36.4729 16.4906 35.8925 16.3524C35.4491 16.2468 34.9746 16.1552 34.304 16.1552C33.0966 16.1552 31.7974 16.6118 30.9121 17.4659C29.2925 19.0065 29.2007 20.6681 29.0933 22.1481C28.9564 24.1142 28.5892 24.6018 27.5203 26.0352Z" fill="#FFEA00"/>
<path d="M66.72 26.9648C66.6126 26.8281 66.5208 26.766 66.3994 26.766C66.2158 26.766 66.124 26.8887 66.124 27.0254C66.124 27.2397 66.2765 27.499 66.6593 28.1404C67.82 30.1065 69.2561 32.0881 71.0282 33.9501C72.9373 35.9767 75.1824 37.8667 77.5816 39.5595L78.33 40.0781C78.4374 40.1558 78.5136 40.2008 78.6054 40.2008C78.7579 40.2008 78.8652 40.0486 78.8652 39.926C78.8652 39.8499 78.8341 39.7722 78.7423 39.6961C76.5127 37.6695 74.1135 35.1987 71.8684 32.8211C70.1102 30.9451 68.3085 28.9635 66.72 26.9648Z" fill="#FFEA00"/>
<path d="M17.5601 20.0582C17.7888 19.6777 18.4765 18.7475 18.7519 18.4571C17.5756 16.0795 15.651 13.8075 14.8108 12.9067L14.1076 13.5932C14.9182 14.7672 16.2765 17.0392 17.5601 20.0582Z" fill="#FFEA00"/>
<path d="M6.36262 6.28981C6.22415 6.16712 6.19459 6.09103 6.19459 5.9994C6.19459 5.8938 6.27083 5.77111 6.43886 5.77111C6.49954 5.77111 6.56022 5.78664 6.63802 5.8177C7.76759 6.27428 8.73069 6.8085 9.58643 7.46386C10.3037 8.01206 11.007 8.6845 11.6931 9.49205L11.0521 10.2235C10.2586 9.56659 7.69135 7.41882 6.36262 6.28981Z" fill="#FFEA00"/>
<path d="M17.1935 11.3977L16.3689 10.8946C16.9026 9.62888 17.5607 8.47036 18.3387 7.60069C18.8895 6.9764 19.4091 6.47168 19.9895 5.97007C20.1264 5.86291 20.2026 5.77128 20.3395 5.77128C20.4936 5.77128 20.6009 5.89397 20.6009 6.0151C20.6009 6.07567 20.5698 6.15176 20.5091 6.24339C19.5772 7.69232 17.7583 10.5591 17.1935 11.3977Z" fill="#FFEA00"/>
<path d="M6.83619 18.4723C6.63704 18.5484 6.54524 18.595 6.43944 18.595C6.2714 18.595 6.19361 18.4568 6.19361 18.3496C6.19361 18.244 6.24029 18.1835 6.34764 18.0903C8.2256 16.6274 9.8764 16.0481 12.1527 15.6661L12.4265 16.5824L6.83619 18.4723Z" fill="#FFEA00"/>
<path d="M46.0201 6.64044C46.0201 6.10621 46.2955 5.14492 47.2881 5.14492C47.6242 5.14492 47.9447 5.22102 48.2045 5.3437C48.5717 5.51142 48.816 5.75524 48.816 6.01459C48.816 6.28947 48.5406 6.56434 48.1283 6.89979C47.7004 7.24921 47.1512 7.57067 46.7078 7.57067C46.1741 7.57067 46.0201 7.06595 46.0201 6.64044Z" fill="#FFEA00"/>
<path d="M30.5146 11.0928C30.5146 10.4374 30.9114 9.71995 31.6753 9.71995C32.0114 9.71995 32.4082 9.85661 32.6991 10.133C32.8672 10.2852 32.9434 10.4514 32.9434 10.6207C32.9434 10.9872 32.5918 11.3366 32.1795 11.5804C31.8589 11.7637 31.5229 11.8864 31.2335 11.8864C30.7589 11.8864 30.5146 11.5944 30.5146 11.0928Z" fill="#FFEA00"/>
<path d="M34.1046 20.5006C34.1046 20.3484 34.1202 20.1652 34.1808 19.9819C34.3038 19.5859 34.562 19.2039 35.2046 19.2039C35.4956 19.2039 35.8145 19.28 36.0744 19.4648C36.3046 19.617 36.3964 19.8142 36.3964 20.013C36.3964 20.6684 35.2964 21.4309 34.7456 21.4309C34.3489 21.4309 34.1046 21.0488 34.1046 20.5006Z" fill="#FFEA00"/>
<path d="M28.0858 39.743C26.0242 39.743 25.1062 38.7678 25.1062 37.5331C25.1062 35.3667 28.9104 33.2485 32.3318 31.9362L33.2186 33.0808C31.1104 33.9178 26.8644 35.7193 26.8644 37.2738C26.8644 37.822 27.1849 38.2196 28.4669 38.2196C30.6981 38.2196 33.0973 37.1356 35.3113 36.0532C35.4793 35.9771 35.6785 35.901 35.8621 35.901C36.1515 35.901 36.3351 35.9926 36.5482 36.297L36.9154 36.8001C34.3342 38.2196 31.1104 39.743 28.0858 39.743Z" fill="#FFEA00"/>
<path d="M33.7689 40.3232C31.7525 41.4507 29.6598 42.1992 27.8114 42.1992C25.7483 42.1992 23.9154 41.314 22.3876 39.0109C21.7465 38.0357 21.2424 36.8166 20.631 35.7341C19.8981 34.4529 19.1031 33.7665 17.7137 33.7665C16.4456 33.7665 15.2071 34.2852 13.894 34.849L13.9546 35.1394C14.062 35.6115 14.2456 35.9469 14.6875 35.9469C14.8866 35.9469 15.0858 35.8568 15.1931 35.8258C15.926 35.5959 16.4596 35.3972 17.2096 35.3972C18.3547 35.3972 18.9039 36.0696 19.6834 37.7157L19.9744 38.3261C19.1793 38.6009 17.3154 38.7376 15.926 38.7376H15.2694L15.3767 39.393C15.4218 39.6678 15.5292 39.8961 15.7579 40.0033C16.0318 40.1399 16.4301 40.1555 17.1178 40.1555C18.8588 40.1555 20.1269 39.9427 20.8597 39.7579C22.7392 42.5502 25.3204 43.6171 27.8114 43.6171C29.9336 43.6171 32.0885 42.839 34.1516 41.7116L33.7689 40.3232Z" fill="#FFEA00"/>
<path d="M35.8458 41.0089L35.4802 39.6051C38.6262 37.9139 41.4984 36.5566 46.082 36.114C46.1738 37.8673 46.0509 40.0787 47.3501 40.0787C48.5403 40.0787 51.1371 37.0131 54.1322 33.1711C54.4076 33.4304 54.8495 33.7053 55.2478 34.0097L54.4838 35.0005C51.565 38.7525 49.0756 41.9547 47.028 41.9547C45.1189 41.9547 44.4001 39.7122 44.3706 38.035C41.4533 38.3254 38.7025 39.3007 35.8458 41.0089Z" fill="#FFEA00"/>
<path d="M76.2681 10.4065C75.0763 10.4065 74.7402 9.74963 74.7402 8.82094C74.7402 6.89991 75.9476 4.14026 76.7115 2.56865H74.8616C73.9 4.42912 70.1114 10.391 68.0639 12.8618L69.2401 14.1259C70.3401 12.9068 71.5475 10.8336 72.8607 8.78988H73.105C73.105 8.89704 73.091 9.01817 73.091 9.12533C73.091 10.8491 73.9763 12.1288 76.1607 12.1288C77.505 12.1288 79.6132 11.4579 81.6001 10.787C83.2494 10.2233 84.7617 9.64402 85.5101 9.43126V7.60185C84.6543 7.85965 82.9133 8.53054 81.11 9.15639C79.2165 9.81174 77.3525 10.4065 76.2681 10.4065Z" fill="#FFEA00"/>
<path d="M80.3463 15.9412C82.1792 15.1648 85.4637 13.8525 87.3587 13.1661V11.3056C83.5546 12.7095 76.8783 15.4691 72.3257 17.9399C72.4486 18.0906 73.2437 19.2041 73.3339 19.3423C75.2586 18.5487 76.9856 18.03 78.5431 18.03C80.7291 18.03 82.5152 18.03 85.5103 17.3281V15.9257C83.83 16.2317 82.0423 16.5966 80.8816 16.5966C80.1939 16.5966 79.9947 16.505 79.9947 16.2767C79.9947 16.14 80.0865 16.0484 80.3463 15.9412Z" fill="#FFEA00"/>
<path d="M41.2078 24.5103L40.4734 25.9142H48.2809L47.7005 24.5103H41.2078Z" fill="#FFEA00"/>
<path d="M13.084 32.8817C13.9086 32.8817 14.5808 32.6068 15.2234 32.349C15.8333 32.1037 16.4447 31.8598 17.2693 31.8598C19.2251 31.8598 21.6383 32.8056 23.7621 33.7048C23.885 33.7514 24.0219 33.7809 24.1588 33.7809C24.4965 33.7809 24.7563 33.6287 24.9228 33.3088L25.1982 32.8056C22.8612 31.4483 19.1333 29.9994 17.1931 29.9994C16.3078 29.9994 15.6652 30.2292 15.0553 30.4715C14.3676 30.7479 13.7717 31.0368 13.1447 31.0368C11.6028 31.0368 7.64617 29.5117 7.64617 28.0333C7.64617 26.2955 13.9397 25.6246 14.6274 25.6246L15.2529 24.2052C10.6864 24.2052 5.24699 25.8063 5.24699 27.9261C5.24699 28.5365 5.59862 28.8409 5.59862 29.4046C5.59862 30.1671 5.24699 30.6858 5.24699 31.5399C5.24699 32.1037 5.58307 32.8211 5.97982 33.447C6.40769 34.1023 6.91179 34.5279 6.91179 35.0776C6.91179 35.4892 6.63796 35.9768 6.63796 36.9381C6.63796 38.9958 7.81421 40.2475 10.1045 42.7012L10.5635 43.1888C8.66995 43.9218 5.13964 45.4469 4.31502 45.7963C1.4584 46.9859 0.741139 48.4348 0.741139 50.7223C0.741139 51.606 0.741139 52.6123 0.801818 53.5115H1.35105C2.49774 53.5115 2.63466 52.8266 2.63466 52.1713C2.63466 51.7287 2.6191 51.2255 2.6191 50.6757C2.63466 49.4116 2.68133 48.2826 4.72733 47.3679C5.5535 47.0014 9.60037 45.3552 12.611 44.074C13.4963 43.692 14.3209 43.3721 15.2374 43.3721C16.2611 43.3721 17.4374 43.8147 18.9046 44.6843C20.1415 45.4158 21.4407 46.4066 22.4645 47.5496L23.7621 46.5588C22.6465 45.2481 21.1046 44.074 19.5612 43.1593C18.0177 42.2446 16.6439 41.7104 15.4832 41.7104C14.9791 41.7104 14.5668 41.802 14.2151 41.8936C13.8028 42.0008 13.4201 42.1219 12.9315 42.1219C12.3667 42.1219 11.8922 41.9853 11.2045 41.1917C10.9447 40.9028 9.29542 39.0268 8.94379 38.4786C8.77575 38.2193 8.4708 37.7006 8.4708 37.0903C8.4708 36.8309 8.51592 36.5265 8.66995 36.2517C10.0889 37.3496 11.8471 38.0205 13.9849 38.2799L13.6955 36.8309C10.6241 36.0234 7.35522 33.3243 7.35522 31.5865C7.35522 31.22 7.44702 30.9607 7.58549 30.6408C8.77575 31.7387 11.5717 32.8817 13.084 32.8817Z" fill="#FFEA00"/>
<path d="M35.0674 33.1566C36.9921 31.7993 38.9774 31.6471 40.5815 31.6471C41.5446 31.6471 42.6742 31.7838 43.866 31.936C44.8291 32.0587 45.6988 32.1503 46.7382 32.1503C48.8308 32.1503 50.9391 31.3878 51.8555 30.9902C52.1153 31.3117 52.5587 31.7388 52.9104 32.0432C52.4669 32.318 49.657 33.8415 46.7848 33.8415C45.5168 33.8415 44.3094 33.6909 43.2701 33.5527C42.3537 33.4315 41.361 33.3244 40.3979 33.3244C39.3446 33.3244 37.2208 33.6287 35.9076 34.2546L35.0674 33.1566Z" fill="#FFEA00"/>
<path d="M63.4354 38.5998C61.1436 43.4186 57.6599 46.9253 54.0861 48.9535C52.3901 49.9132 50.8623 50.5391 47.5638 50.5391H40.4285C37.8784 50.5391 36.2742 50.8745 35.0217 51.1944C33.6759 51.5454 32.8217 51.8948 31.4619 51.8948C29.4454 51.8948 27.5815 50.904 26.6806 49.9598L28.361 48.6336L27.5208 47.5185C27.0323 47.871 21.0592 52.2768 19.8051 53.2676L19.7289 53.2226C19.76 52.9182 19.76 52.6433 19.76 52.3685C19.76 49.014 18.201 48.2049 15.8345 47.2607L14.2304 48.2049C17.4838 49.2889 18.2928 50.157 18.2928 52.5812C18.2928 54.5038 17.6051 55.2648 16.6125 55.8456C15.5887 56.4404 14.3206 56.7137 13.2066 56.7137C12.7321 56.7137 12.5189 56.8053 12.3509 56.9731C12.1673 57.1563 12.0755 57.4312 12.0755 57.8117V58.3459H12.4582C14.5042 58.3459 16.3993 58.026 18.4764 56.3938L25.2445 51.1183C26.2061 52.2163 28.6364 53.7413 31.507 53.7413C33.1267 53.7413 34.166 53.3437 35.6628 52.9633C36.8235 52.6729 37.9546 52.4135 40.4285 52.4135H47.5933C51.2606 52.4135 53.0327 51.651 54.9869 50.5546C59.2345 48.1754 62.855 44.1501 64.9026 39.5284C64.3674 39.1945 63.8633 38.8886 63.4354 38.5998Z" fill="#FFEA00"/>
<path d="M51.9322 44.3338C53.7806 41.3754 55.4299 38.7524 59.4783 36.6186C59.0504 36.3592 58.4405 35.9632 58.1185 35.7489C56.5455 36.4353 54.988 37.8066 53.6593 39.195C50.6035 42.3662 50.8773 44.1956 47.6551 45.4317C46.8445 45.7361 45.8518 46.0716 44.5838 46.362C43.8354 44.0589 41.9574 41.7714 39.9706 41.7714C38.5952 41.7714 37.0066 42.4873 35.1738 43.2964C33.0204 44.2422 31.0491 45.3246 30.4236 45.7361L31.2638 46.8651C31.9048 46.5126 33.7532 45.5979 35.6016 44.8059C37.2057 44.1195 38.6574 43.5558 39.6345 43.5558C41.2075 43.5558 42.2313 45.3401 42.7976 46.772C40.7345 47.2612 37.3427 47.3823 36.3204 47.3823C35.8459 47.3823 35.6779 47.4584 35.5098 47.5966C35.3574 47.7333 35.2344 47.9771 35.1582 48.3125L35.0368 48.8312H36.1353C41.8501 48.8312 47.2428 47.932 50.7093 45.8278C51.1994 45.966 51.6273 46.056 52.1765 46.056C54.1618 46.056 56.2094 44.9736 57.493 43.9828C57.9504 43.6318 58.0578 43.3104 58.0578 42.961C58.0578 42.7932 58.0422 42.641 58.0267 42.4873L57.966 41.8941C56.1331 43.3414 54.6053 44.4254 52.7117 44.4254C52.3757 44.4254 52.1314 44.3944 51.9322 44.3338Z" fill="#FFEA00"/>
</g>
</svg>
