<svg width="192" height="192" viewBox="0 0 192 192" fill="none" xmlns="http://www.w3.org/2000/svg">
<path d="M154.106 14.3807C178.555 18.2017 195.277 41.1194 191.456 65.5684C188.036 87.4545 169.312 103.145 147.886 103.454L147.686 104.732C167.997 111.563 181.04 132.219 177.619 154.106C173.798 178.555 150.881 195.277 126.432 191.456C104.545 188.036 88.8536 169.312 88.5451 147.886L87.2684 147.686C80.4372 167.997 59.7807 181.04 37.8944 177.619C13.4454 173.798 -3.2771 150.88 0.543893 126.431C3.96449 104.545 22.6881 88.8533 44.1143 88.5449L44.314 87.2673C24.0037 80.4361 10.9606 59.7805 14.3809 37.8943C18.2019 13.4453 41.1196 -3.27725 65.5685 0.543747C87.4548 3.96439 103.147 22.688 103.455 44.1142L104.732 44.3137C111.563 24.0032 132.219 10.9602 154.106 14.3807Z" fill="#4CAF4F"/>
</svg>
