<svg width="197" height="47" viewBox="0 0 197 47" fill="none" xmlns="http://www.w3.org/2000/svg">
<g opacity="0.4" clip-path="url(#clip0_22_181)">
<path d="M172.556 15.7152C173.65 15.7152 174.551 15.1465 174.672 14.4117L175.752 2.19822C175.752 0.991031 174.338 0 172.56 0C170.783 0 169.371 0.991026 169.371 2.19843L170.45 14.4117C170.569 15.1463 171.469 15.7152 172.56 15.7152H172.556ZM165.955 19.5301C166.504 18.584 166.463 17.5206 165.884 17.0482L155.845 10.0062C154.802 9.40169 153.237 10.1293 152.349 11.6696C151.457 13.208 151.615 14.9262 152.656 15.5309L163.772 20.7066C164.467 20.9641 165.415 20.4684 165.959 19.5229L165.955 19.5301ZM179.163 19.5236C179.711 20.469 180.654 20.965 181.349 20.7072L192.465 15.5316C193.513 14.9271 193.661 13.2087 192.778 11.6703C191.886 10.1315 190.318 9.40235 189.277 10.0068L179.238 17.0488C178.664 17.5206 178.621 18.5848 179.167 19.5307L179.163 19.5236ZM172.556 30.9718C173.65 30.9718 174.551 31.5357 174.672 32.2712L175.752 44.4829C175.752 45.6938 174.338 46.6827 172.56 46.6827C170.783 46.6827 169.371 45.6938 169.371 44.4829L170.45 32.2712C170.569 31.5357 171.469 30.9718 172.56 30.9718H172.556ZM179.163 27.1561C179.711 26.208 180.654 25.7164 181.349 25.977L192.465 31.1492C193.513 31.7543 193.661 33.4742 192.778 35.0139C191.886 36.5478 190.318 37.2788 189.277 36.6752L179.238 29.6398C178.664 29.1643 178.621 28.0994 179.167 27.1541H179.162M165.955 27.1548C166.504 28.0994 166.463 29.1643 165.884 29.6406L155.845 36.6759C154.802 37.2795 153.237 36.5484 152.349 35.0146C151.457 33.4749 151.615 31.7549 152.656 31.1498L163.772 25.9777C164.467 25.717 165.415 26.2086 165.959 27.157H165.955" fill="#FFEA00"/>
<path d="M109.234 29.6176C109.234 29.9924 109.2 30.3789 109.098 30.7184C108.672 32.1285 107.212 33.3209 105.386 33.3209C103.863 33.3209 102.653 32.4558 102.653 30.6287C102.653 27.8323 105.731 27.06 109.235 27.0794L109.234 29.6174V29.6176ZM114.729 24.7444C114.729 20.1333 112.759 16.0759 106.102 16.0759C102.684 16.0759 99.9719 17.0358 98.4915 17.8913L99.5758 21.5983C100.929 20.7441 103.085 20.037 105.126 20.037C108.503 20.0276 109.056 21.9493 109.056 23.1792V23.4703C101.695 23.4594 97.0415 26.0082 97.0415 31.2004C97.0415 34.3731 99.4115 37.3447 103.531 37.3447C106.063 37.3447 108.183 36.3343 109.452 34.7141H109.577C109.577 34.7141 110.416 38.2315 115.052 36.8858C114.81 35.423 114.73 33.8615 114.73 31.9838L114.729 24.7444M0.0371597 9.79637C0.0371597 9.79637 4.84739 29.5067 5.61551 32.7055C6.51153 36.4393 8.12642 37.8138 12.7802 36.8858L15.7836 24.6661C16.5451 21.6294 17.0548 19.4643 17.5455 16.3784H17.631C17.9755 19.497 18.4642 21.6388 19.0909 24.6762C19.0909 24.6762 20.3129 30.224 20.9398 33.137C21.5674 36.049 23.3141 37.8855 27.8731 36.8858L35.0299 9.7955H29.2533L26.8089 21.5085C26.1517 24.9165 25.5559 27.5826 25.0961 30.6997H25.0144C24.5967 27.61 24.0648 25.0527 23.3974 21.7314L20.8544 9.7955H14.8346L12.113 21.4305C11.3427 24.9671 10.6203 27.8216 10.1627 30.835H10.0795C9.60969 27.9975 8.9843 24.4084 8.30749 20.9866C8.30749 20.9866 6.69173 12.6642 6.12344 9.7955L0.0371597 9.79637ZM45.957 29.6176C45.957 29.9924 45.9236 30.3789 45.8195 30.7184C45.3946 32.1285 43.9337 33.3209 42.1073 33.3209C40.5841 33.3209 39.3763 32.4558 39.3763 30.6287C39.3763 27.8323 42.4533 27.06 45.9576 27.0794L45.957 29.6174V29.6176ZM51.4519 24.7444C51.4519 20.1333 49.4816 16.0759 42.8255 16.0759C39.4072 16.0759 36.6928 17.0358 35.2132 17.8913L36.2962 21.5983C37.6489 20.7441 39.8053 20.037 41.8466 20.037C45.2259 20.0276 45.7789 21.9493 45.7789 23.1792V23.4703C38.4149 23.4594 33.7639 26.0082 33.7639 31.2004C33.7639 34.3731 36.1325 37.3447 40.2492 37.3447C42.7841 37.3447 44.903 36.3343 46.1733 34.7141H46.2971C46.2971 34.7141 47.1391 38.2315 51.773 36.8858C51.5307 35.423 51.4519 33.8615 51.4519 31.9838V24.7444ZM60.6226 31.1353V9.79637H55.1205V36.8866H60.6226V31.1353ZM132.6 9.79637V29.7804C132.6 32.5368 133.119 34.4659 134.228 35.6466C135.198 36.6788 136.794 37.3469 138.707 37.3469C140.334 37.3469 141.934 37.0363 142.689 36.7563L142.618 32.458C142.056 32.5952 141.411 32.7064 140.528 32.7064C138.654 32.7064 138.027 31.5053 138.027 29.0319V21.3856H142.818V16.2017H138.027V9.79637H132.6ZM118.398 16.5355V36.8866H124.074V26.4665C124.074 25.9032 124.108 25.4125 124.197 24.9636C124.617 22.7798 126.286 21.3856 128.684 21.3856C129.341 21.3856 129.811 21.4571 130.321 21.5294V16.2017C129.893 16.1165 129.603 16.0766 129.071 16.0766C126.953 16.0766 124.543 17.4433 123.532 20.375H123.378V16.5355H118.398ZM64.4751 16.5355V36.8866H70.0049V24.9527C70.0049 24.3927 70.0707 23.8004 70.2646 23.287C70.7229 22.0855 71.8411 20.6783 73.6256 20.6783C75.858 20.6783 76.9004 22.5647 76.9004 25.2872V36.8851H82.4258V24.8058C82.4258 24.2715 82.4988 23.6274 82.6568 23.1563C83.1105 21.7887 84.3151 20.6768 85.9742 20.6768C88.2362 20.6768 89.3221 22.53 89.3221 25.7345V36.8845H94.8512V24.8976C94.8512 18.5768 91.6414 16.0746 88.0177 16.0746C86.4143 16.0746 85.1475 16.4762 84.0017 17.1783C83.0397 17.771 82.1768 18.6108 81.4239 19.7147H81.3422C80.4684 17.5215 78.4125 16.0757 75.7333 16.0757C72.2915 16.0757 70.7446 17.8205 69.8063 19.3H69.724V16.5348H64.4751" fill="#FFEA00"/>
<path d="M195.253 35.8972H195.337C195.447 35.8972 195.518 35.8514 195.518 35.7835C195.518 35.7061 195.452 35.664 195.349 35.664C195.313 35.664 195.277 35.6712 195.253 35.6712V35.8992V35.897L195.253 35.8972ZM195.24 36.4459H194.946V35.4882C195.013 35.4751 195.169 35.4518 195.368 35.4518C195.584 35.4518 195.681 35.4823 195.752 35.5302C195.812 35.5721 195.856 35.6436 195.856 35.7401C195.856 35.8384 195.765 35.9216 195.632 35.958V35.9702C195.741 35.9992 195.8 36.0781 195.831 36.2164C195.861 36.3546 195.879 36.411 195.897 36.4465H195.564C195.535 36.411 195.518 36.3263 195.499 36.2417C195.48 36.1447 195.434 36.0961 195.336 36.0961H195.24L195.24 36.4459ZM195.362 35.1762C194.94 35.1762 194.621 35.52 194.621 35.9584C194.621 36.3855 194.941 36.734 195.373 36.734C195.808 36.7411 196.127 36.3857 196.127 35.9515C196.127 35.5191 195.808 35.1762 195.368 35.1762H195.362ZM195.381 34.9162C195.969 34.9162 196.438 35.3795 196.438 35.9512C196.438 36.5298 195.969 36.9937 195.373 36.9937C194.776 36.9937 194.301 36.5291 194.301 35.9515C194.301 35.3795 194.777 34.9164 195.373 34.9164H195.379" fill="#FFEA00"/>
</g>
<defs>
<clipPath id="clip0_22_181">
<rect width="196.733" height="46.6195" fill="white" transform="scale(1.00136)"/>
</clipPath>
</defs>
</svg>
