<svg width="28" height="28" viewBox="0 0 28 28" fill="none" xmlns="http://www.w3.org/2000/svg">
<g clip-path="url(#clip0_22_82)">
<path d="M14.0123 6.86655C13.7661 6.86655 13.5225 6.8791 13.2826 6.90368C13.0426 6.92826 12.806 6.96468 12.5734 7.01249C12.3408 7.0603 12.1123 7.1195 11.8884 7.18938L11.2313 7.43068L10.6056 7.73279L10.0152 8.09204L9.46354 8.50467L8.95449 8.96707L8.49163 9.47568L8.07856 10.0267L7.71886 10.6166L7.41656 11.2415C7.3257 11.4553 7.24488 11.6744 7.17491 11.8981C7.10494 12.1219 7.04574 12.3502 6.99784 12.5826C6.94994 12.8149 6.91352 13.0513 6.88885 13.291C6.86419 13.5308 6.85181 13.7741 6.85181 14.02C6.85181 14.266 6.86436 14.5093 6.88885 14.749C6.9132 14.9869 6.94958 15.2234 6.99784 15.4576C7.04574 15.6908 7.10494 15.9183 7.17491 16.142C7.24488 16.3657 7.32561 16.5848 7.41656 16.7986L7.71886 17.4236L8.07856 18.0133L8.49163 18.5645L8.95449 19.0731L9.46354 19.5355L10.0152 19.9481L10.6056 20.3074L11.2313 20.6095L11.8884 20.8508L12.5734 21.0277C12.8078 21.0759 13.0445 21.1122 13.2826 21.1365C13.525 21.1613 13.7686 21.1736 14.0123 21.1736C14.2585 21.1736 14.5021 21.161 14.7419 21.1365C14.98 21.1122 15.2167 21.0759 15.4511 21.0277L16.1361 20.8508L16.7933 20.6095L17.4189 20.3074L18.0094 19.9481L18.561 19.5355L19.0702 19.0731L19.533 18.5645L19.9461 18.0133L20.3058 17.4236L20.6081 16.7986L20.8497 16.142C20.9197 15.9183 20.9789 15.6899 21.0268 15.4576L21.1358 14.7489C21.1604 14.5092 21.1729 14.2659 21.1729 14.0199C21.1729 13.774 21.1604 13.5307 21.1358 13.2909C21.1115 13.0531 21.0751 12.8166 21.0268 12.5825C20.9789 12.3493 20.9197 12.1219 20.8497 11.8981L20.6081 11.2414L20.3058 10.6165L19.9461 10.0266L19.533 9.47559L19.0702 8.96699L18.561 8.50458L18.0094 8.09195L17.4189 7.7327L16.7933 7.43059L16.1361 7.18929L15.4511 7.0124L14.7419 6.90359C14.4995 6.87883 14.256 6.86644 14.0123 6.86646V6.86655ZM14.0123 9.33566C14.1751 9.33566 14.3357 9.34373 14.494 9.3597L14.9604 9.43029L15.411 9.54511L15.8425 9.70182L16.2527 9.89826L16.6384 10.1319L16.999 10.4008L17.3314 10.7023L17.6332 11.0344L17.9023 11.3947L18.1363 11.7809L18.3327 12.1908C18.3918 12.3311 18.4441 12.4749 18.4897 12.6219C18.5353 12.769 18.5736 12.9192 18.6045 13.0722C18.6355 13.2253 18.6583 13.381 18.6751 13.5391L18.6992 14.0205C18.6992 14.1831 18.6911 14.3437 18.6751 14.5019C18.6592 14.6601 18.6357 14.8159 18.6045 14.9688C18.5734 15.1217 18.535 15.272 18.4897 15.4191L18.3327 15.8502L18.1363 16.2601L17.9023 16.6463L17.6332 17.0066L17.3314 17.3387L16.999 17.6403L16.6384 17.9091L16.2527 18.1428L15.8425 18.3392L15.411 18.4959L14.9604 18.6107L14.494 18.6813C14.3339 18.6973 14.1731 18.7053 14.0122 18.7053C13.8513 18.7053 13.6904 18.6973 13.5303 18.6813L13.0639 18.6107C12.9108 18.5797 12.7604 18.5413 12.6132 18.4959L12.1818 18.3392L11.7716 18.1428L11.3858 17.9091L11.0252 17.6403L10.6928 17.3387L10.391 17.0066L10.1219 16.6463L9.88792 16.2601L9.69147 15.8502L9.5345 15.4191L9.41968 14.9688L9.34908 14.5019C9.33303 14.3419 9.32501 14.1813 9.32504 14.0205C9.32501 13.8597 9.33303 13.6991 9.34908 13.5391C9.36496 13.381 9.38855 13.2252 9.41968 13.0722C9.45049 12.9204 9.48884 12.7701 9.53459 12.622L9.69156 12.1909L9.88801 11.781L10.1219 11.3947L10.3911 11.0345L10.6929 10.7024L11.0253 10.4009L11.3859 10.132L11.7716 9.89835L12.1818 9.70191C12.323 9.64261 12.4671 9.59031 12.6134 9.5452L13.0641 9.43038C13.2172 9.39934 13.3731 9.37566 13.5305 9.35979C13.6906 9.34374 13.8514 9.33572 14.0124 9.33575L14.0123 9.33566Z" fill="#FFEA00"/>
<path d="M21.4633 4.83154C21.4064 4.83155 21.3496 4.83443 21.293 4.84015C21.2364 4.84587 21.1802 4.85443 21.1245 4.86581C21.0688 4.87717 21.0136 4.89133 20.9593 4.90824C20.905 4.92515 20.8516 4.94479 20.7992 4.96708C20.7469 4.9894 20.6956 5.01433 20.6457 5.0418C20.5958 5.06922 20.5473 5.09912 20.5004 5.13141C20.4535 5.16374 20.4082 5.19841 20.3647 5.23529C20.3212 5.27213 20.2796 5.31114 20.24 5.35217C20.2004 5.39322 20.1629 5.43624 20.1275 5.48107C20.0922 5.5259 20.0591 5.57248 20.0284 5.62064C19.9977 5.66877 19.9694 5.7184 19.9436 5.76937C19.9178 5.82037 19.8946 5.87264 19.8739 5.92599C19.8534 5.97932 19.8354 6.03366 19.8202 6.08879C19.805 6.14393 19.7926 6.19979 19.7829 6.25618C19.7732 6.31255 19.7664 6.36937 19.7624 6.42643C19.7595 6.46685 19.7581 6.50736 19.7581 6.54788C19.7581 6.60513 19.7609 6.66234 19.7666 6.7193C19.7723 6.77624 19.7808 6.83285 19.7921 6.88893C19.8033 6.94501 19.8174 7.00048 19.8342 7.05514C19.851 7.10982 19.8705 7.16362 19.8927 7.21634C19.9148 7.26907 19.9396 7.32065 19.9669 7.37089C19.9941 7.42112 20.0239 7.46995 20.056 7.51719C20.0881 7.5644 20.1225 7.60997 20.1591 7.65372C20.1957 7.6975 20.2345 7.73941 20.2753 7.7793C20.3161 7.81916 20.3588 7.85694 20.4034 7.8925C20.4479 7.92809 20.4942 7.96141 20.542 7.99234C20.5899 8.02327 20.6393 8.05177 20.69 8.07773C20.7406 8.10371 20.7925 8.12712 20.8455 8.14788C20.8985 8.16861 20.9525 8.18667 21.0072 8.20197C21.062 8.21725 21.1175 8.22977 21.1735 8.23947C21.2296 8.24921 21.286 8.25612 21.3427 8.26019C21.3829 8.26306 21.4231 8.26449 21.4634 8.26449C21.5202 8.26451 21.577 8.26167 21.6336 8.25597C21.6902 8.25025 21.7464 8.24169 21.8022 8.23032C21.8579 8.21895 21.913 8.20479 21.9673 8.18789C22.0216 8.17097 22.0751 8.15133 22.1274 8.12904C22.1798 8.10676 22.231 8.08185 22.2809 8.05441C22.3308 8.02697 22.3793 7.99703 22.4262 7.96471C22.4731 7.93242 22.5184 7.89778 22.5619 7.86093C22.6054 7.82405 22.647 7.78502 22.6866 7.74396C22.7262 7.70291 22.7638 7.65989 22.7991 7.61506C22.8344 7.57023 22.8675 7.52364 22.8982 7.47548C22.9289 7.42733 22.9572 7.37766 22.983 7.32667C23.0088 7.27566 23.0321 7.22339 23.0527 7.17005C23.0733 7.11672 23.0912 7.06238 23.1064 7.00724C23.1216 6.95211 23.1341 6.89625 23.1437 6.83986C23.1534 6.78349 23.1602 6.72667 23.1643 6.66961C23.1671 6.62919 23.1686 6.58868 23.1686 6.54815C23.1686 6.49093 23.1657 6.43375 23.1601 6.37682C23.1544 6.31989 23.1459 6.26328 23.1346 6.2072C23.1233 6.15112 23.1092 6.09565 23.0924 6.04098C23.0756 5.9863 23.0561 5.93251 23.0339 5.87979C23.0118 5.82706 22.987 5.77548 22.9598 5.72523C22.9325 5.675 22.9028 5.62617 22.8707 5.57893C22.8385 5.53169 22.8041 5.48609 22.7674 5.44232C22.7308 5.39854 22.6921 5.35662 22.6514 5.31674C22.6106 5.27688 22.5678 5.23909 22.5233 5.20353C22.4787 5.16798 22.4324 5.13469 22.3846 5.10379C22.3367 5.07286 22.2874 5.04435 22.2367 5.01839C22.186 4.99241 22.1341 4.969 22.0811 4.94824C22.0282 4.92751 21.9742 4.90946 21.9194 4.89415C21.8646 4.87884 21.8091 4.8663 21.7531 4.85657C21.6971 4.84686 21.6406 4.83997 21.5839 4.83594C21.5438 4.83307 21.5035 4.83163 21.4633 4.83163V4.83154Z" fill="#FFEA00"/>
<path d="M12.6545 0.0254073C11.8757 0.0241515 11.1807 0.0273803 10.5564 0.036171L8.88253 0.0810216C8.38667 0.10255 7.94857 0.130624 7.55532 0.166953C7.35869 0.185073 7.17319 0.205345 6.99738 0.227681C6.83007 0.248768 6.66322 0.273322 6.49693 0.301327C6.33861 0.328237 6.18836 0.357299 6.0443 0.388873C5.90024 0.420448 5.76264 0.454536 5.62988 0.491134C5.5001 0.526921 5.37133 0.566286 5.24372 0.609181C5.11868 0.651341 4.99668 0.696012 4.87621 0.743733C4.63528 0.839175 4.40026 0.946276 4.15825 1.0663C3.97203 1.15869 3.79998 1.25225 3.63655 1.35128C3.47311 1.45031 3.31829 1.5549 3.16669 1.66882C3.01057 1.78671 2.8601 1.91189 2.71576 2.04395C2.56489 2.18137 2.41078 2.33252 2.25066 2.50142C2.04946 2.71249 1.87464 2.9093 1.71945 3.10242C1.64186 3.19894 1.56921 3.29438 1.50076 3.39036C1.43308 3.48495 1.36837 3.58163 1.30674 3.68027C1.24574 3.77805 1.18798 3.87762 1.13272 3.98006C1.0766 4.08426 1.02357 4.19009 0.97368 4.29742C0.8716 4.51665 0.776338 4.75274 0.681255 5.01628C0.610715 5.21111 0.547551 5.40854 0.491896 5.60813C0.435115 5.81211 0.384613 6.02551 0.339583 6.25631C0.294553 6.48711 0.255264 6.73531 0.220729 7.0098C0.183514 7.31068 0.153784 7.61244 0.131566 7.91479C0.10645 8.24722 0.0856395 8.61303 0.0685963 9.02018L0.0282309 10.3739L0.00652319 12.0242L0.000244141 14.0189L0.0186329 16.9195L0.0760415 19.1172L0.120264 19.9756L0.17552 20.687C0.193233 20.8787 0.215395 21.07 0.241989 21.2607C0.266208 21.4301 0.292221 21.5782 0.320208 21.7065C0.376995 21.9673 0.444145 22.2257 0.521497 22.4812C0.595561 22.7257 0.680259 22.967 0.775351 23.2042C0.86882 23.4365 0.971079 23.6606 1.08231 23.8762C1.19354 24.0918 1.31374 24.299 1.44291 24.4981C1.57208 24.6971 1.71022 24.888 1.85768 25.0707C2.00499 25.2535 2.16166 25.4285 2.32709 25.595C2.49277 25.7618 2.66751 25.9206 2.85166 26.0715C3.038 26.2241 3.23168 26.3674 3.43203 26.5011C3.61798 26.6254 3.80196 26.7393 3.98728 26.8438C4.1726 26.9483 4.35954 27.0431 4.55168 27.1293C4.74382 27.2155 4.9408 27.2931 5.14657 27.3629C5.35235 27.4327 5.56673 27.4947 5.79332 27.5498C6.0199 27.6049 6.25976 27.6532 6.51362 27.6954C6.76747 27.7376 7.03882 27.7737 7.32873 27.8048C7.61865 27.836 7.92793 27.8617 8.26028 27.8832C8.59262 27.9048 8.94784 27.922 9.32951 27.9358C9.91912 27.9571 10.8116 27.9696 11.8409 27.9744L15.1728 27.9676L18.328 27.9234L19.5276 27.8897L20.3092 27.8495C20.4769 27.8359 20.6411 27.8197 20.7995 27.8008C20.9579 27.7819 21.1142 27.7603 21.2663 27.7357C21.4184 27.7111 21.5672 27.6836 21.7133 27.6532C21.8577 27.6231 22.0014 27.5895 22.1442 27.5524C22.2856 27.5165 22.425 27.4757 22.5629 27.4324C22.7009 27.3891 22.8374 27.3422 22.9731 27.292C23.1096 27.2415 23.2449 27.1876 23.3788 27.1305C23.5136 27.0731 23.6482 27.0117 23.7833 26.9466C23.9908 26.8467 24.1578 26.7633 24.3045 26.682C24.4424 26.6063 24.5753 26.5217 24.7022 26.4286C24.8274 26.3364 24.9519 26.2315 25.0955 26.0993C25.239 25.967 25.4016 25.8077 25.603 25.6063C25.78 25.4294 25.9292 25.2756 26.058 25.1358C26.1867 24.9959 26.2951 24.8701 26.3902 24.7488C26.4809 24.6337 26.5653 24.5139 26.6432 24.3898C26.7191 24.2687 26.7891 24.143 26.8604 24.0035C26.9677 23.7936 27.0631 23.5992 27.1486 23.4116C27.2316 23.2309 27.3075 23.0469 27.3759 22.8602C27.4434 22.6749 27.5018 22.4864 27.5509 22.2955C27.6015 22.099 27.6451 21.8917 27.6828 21.6642C27.7205 21.4367 27.7523 21.1891 27.7799 20.9127C27.8076 20.6362 27.8311 20.3307 27.8517 19.9874L27.9064 18.835L27.9534 17.4018L27.987 15.8052L27.9999 14.1357L27.9699 10.8566L27.9298 9.38795L27.8751 8.12694L27.8069 7.14381C27.7822 6.87022 27.7555 6.65476 27.7271 6.50909C27.6957 6.34813 27.6607 6.18791 27.622 6.02856C27.5843 5.8735 27.5429 5.71938 27.4977 5.56633C27.4537 5.41722 27.406 5.26925 27.3544 5.12258C27.3035 4.97771 27.2495 4.8359 27.1929 4.69713C27.1364 4.55836 27.0753 4.42282 27.0116 4.29015C26.9479 4.15749 26.8811 4.02805 26.8111 3.90157C26.741 3.77509 26.668 3.65175 26.5917 3.53146C26.5153 3.41117 26.4359 3.29393 26.3531 3.17983C26.2708 3.0661 26.1849 2.95496 26.0956 2.84659C26.0068 2.73882 25.9146 2.63388 25.8192 2.53192C25.7239 2.4301 25.6254 2.33132 25.5238 2.23573C25.4222 2.14011 25.3175 2.04754 25.2095 1.95802C25.1011 1.8682 24.9899 1.78177 24.8761 1.69887C24.7612 1.61512 24.6437 1.53489 24.5238 1.45829C24.4023 1.38061 24.2785 1.30654 24.1526 1.23619C24.0245 1.16466 23.8944 1.09682 23.7624 1.03275C23.5434 0.926273 23.3408 0.83182 23.142 0.748039C22.9465 0.664891 22.7472 0.591043 22.5447 0.526746C22.3411 0.462609 22.1291 0.407623 21.8959 0.360171C21.6627 0.312719 21.4084 0.273161 21.1205 0.239523C20.8327 0.205885 20.5113 0.178707 20.1437 0.156102C19.7761 0.133497 19.3627 0.115735 18.8906 0.101383L17.2862 0.0655029L15.2556 0.0415529L12.6554 0.0255853L12.6545 0.0254073ZM14.0049 2.49236L17.7547 2.51371L19.1693 2.54098C19.5588 2.55193 19.8561 2.56475 20.0304 2.57955C20.2573 2.59866 20.4735 2.62261 20.6803 2.65131C20.8787 2.67872 21.0762 2.71279 21.2723 2.75348C21.4607 2.79295 21.6404 2.8378 21.8123 2.8884C21.9843 2.93899 22.1485 2.99568 22.3061 3.05838C22.4637 3.12108 22.6144 3.19006 22.7595 3.26559C22.9033 3.34055 23.0432 3.42304 23.1784 3.51271C23.3129 3.60197 23.4426 3.69813 23.5686 3.80173C23.6945 3.90534 23.8166 4.01638 23.9358 4.13515C24.0617 4.26046 24.1777 4.38811 24.2847 4.51979C24.3914 4.65065 24.49 4.78781 24.5801 4.93053C24.6713 5.07528 24.7534 5.22551 24.8261 5.38038C24.9004 5.53825 24.9671 5.7051 25.027 5.88244C25.0869 6.05978 25.1403 6.24824 25.1876 6.44962C25.2371 6.66312 25.2786 6.8784 25.3119 7.09502C25.3478 7.32465 25.3785 7.56953 25.4045 7.83173C25.4305 8.09393 25.452 8.37352 25.4698 8.67268C25.484 8.91263 25.4963 9.22927 25.5068 9.60324L25.5331 10.8783L25.5532 14.0017L25.5303 17.1222L25.5029 18.3936L25.4651 19.3183C25.4389 19.7513 25.4113 20.1153 25.3783 20.4321C25.3617 20.5905 25.3438 20.7371 25.3238 20.8746C25.3052 21.0045 25.2831 21.1339 25.2576 21.2627C25.2342 21.3801 25.2072 21.4968 25.1764 21.6125C25.1469 21.7229 25.1137 21.8323 25.0769 21.9405C25.0398 22.0493 24.9994 22.1568 24.9559 22.2631C24.9098 22.3753 24.8612 22.4865 24.8101 22.5965C24.7646 22.6947 24.7168 22.7903 24.6662 22.8833C24.6162 22.9754 24.5631 23.0657 24.5069 23.1542C24.4513 23.2418 24.393 23.327 24.332 23.4094C24.2714 23.4916 24.2077 23.5715 24.1413 23.6491C24.0751 23.7263 24.0061 23.8011 23.9344 23.8733C23.8626 23.9455 23.7882 24.0152 23.711 24.0825C23.6339 24.1498 23.5539 24.2144 23.4711 24.2766C23.3883 24.3389 23.3026 24.3986 23.2141 24.4558C23.1255 24.5131 23.0342 24.568 22.9399 24.6204C22.8457 24.6727 22.7484 24.7228 22.6484 24.7704C22.5467 24.8188 22.4435 24.8641 22.339 24.9062C22.2311 24.9498 22.1219 24.9903 22.0116 25.0278C21.7874 25.1042 21.5508 25.1713 21.3018 25.2292C21.0423 25.2891 20.7804 25.3381 20.5168 25.3761C20.4154 25.3909 20.1824 25.4048 19.8488 25.4177L18.5772 25.4531L14.9721 25.4999L11.1987 25.5058L9.71684 25.49L8.75462 25.4601L8.04508 25.4102C7.82478 25.3916 7.6199 25.371 7.42794 25.3476C7.23598 25.3242 7.05721 25.2981 6.88902 25.2686C6.72963 25.2411 6.57122 25.2082 6.41405 25.17C6.27074 25.1351 6.1289 25.0945 5.98887 25.0481C5.85387 25.0033 5.72479 24.954 5.59921 24.8997C5.47362 24.8454 5.35163 24.7859 5.2308 24.721C5.10998 24.6561 4.9904 24.5856 4.86949 24.5087C4.77826 24.4507 4.69009 24.3921 4.60523 24.3299C4.52037 24.2677 4.43838 24.2058 4.35945 24.1408C4.28051 24.0759 4.20471 24.009 4.13161 23.9401C4.05899 23.8715 3.98885 23.8004 3.92135 23.7268C3.85407 23.6534 3.78976 23.5779 3.72804 23.4996C3.66609 23.4211 3.60705 23.3403 3.55106 23.2574C3.49424 23.1733 3.44047 23.0871 3.38987 22.9991C3.33874 22.9103 3.29012 22.8184 3.24392 22.7237C3.19695 22.6272 3.15313 22.5291 3.11251 22.4298C3.07125 22.3286 3.03214 22.2242 2.99536 22.1164C2.92181 21.9006 2.85722 21.671 2.80107 21.4261C2.74492 21.1812 2.69702 20.9211 2.65647 20.6439C2.61593 20.3667 2.58328 20.0729 2.55726 19.7605C2.53807 19.5305 2.52282 19.1721 2.51116 18.72L2.48676 17.1121L2.49573 13.0132L2.56632 9.09652L2.62014 7.71655L2.65064 7.26042C2.66123 7.13861 2.67217 7.04837 2.68338 6.99419C2.72034 6.81595 2.75757 6.6501 2.79605 6.49483C2.83199 6.34834 2.87199 6.20288 2.91598 6.05861C2.95778 5.92244 3.00182 5.79489 3.04891 5.67406C3.09432 5.55701 3.14494 5.44205 3.2006 5.32952C3.25496 5.22008 3.31335 5.11531 3.37677 5.01332C3.44019 4.91133 3.50863 4.81239 3.58326 4.71399C3.65789 4.61559 3.73827 4.51844 3.82573 4.41995C3.91318 4.32146 4.00764 4.22198 4.11008 4.11945C4.22946 3.99939 4.35378 3.88432 4.4827 3.77455C4.60443 3.67099 4.73137 3.57372 4.86303 3.48311C4.99247 3.39341 5.12523 3.31358 5.26345 3.2402C5.40168 3.16683 5.54538 3.10054 5.69653 3.04089C5.84768 2.98124 6.00645 2.92786 6.17464 2.87942C6.35133 2.82986 6.52999 2.78758 6.71015 2.75268C6.8996 2.71554 7.1008 2.68316 7.31564 2.6549C7.53047 2.62665 7.75903 2.60225 8.00337 2.58108C8.17381 2.56637 8.46749 2.55327 8.85419 2.54224L10.2616 2.51443L14.0055 2.49156L14.0049 2.49236Z" fill="#FFEA00"/>
</g>
<defs>
<clipPath id="clip0_22_82">
<rect width="28" height="28" fill="white"/>
</clipPath>
</defs>
</svg>
